<svg width="283" height="33" viewBox="0 0 283 33" fill="none" xmlns="http://www.w3.org/2000/svg">
<mask id="path-1-outside-1_1_53" maskUnits="userSpaceOnUse" x="0.359985" y="0" width="92" height="33" fill="black">
<rect fill="white" x="0.359985" width="92" height="33"/>
<path fill-rule="evenodd" clip-rule="evenodd" d="M4.16732 26.3382L3.35999 28.56L8.39999 29.604L9.78177 25.8425L4.16732 26.3382ZM20.2316 23.916L19.488 21.972L10.992 22.548L10.1629 24.8049L4.54419 25.301L12.072 4.584L17.04 6.06L17.004 6.168L24.1673 23.5685L20.2316 23.916ZM20.603 24.8871L22.008 28.56L26.652 29.604L24.5661 24.5372L20.603 24.8871ZM28.9281 24.1521V28.596L33.6081 29.604V23.7389L28.9281 24.1521ZM42.1075 21.9846C42.1183 18.0094 42.0332 15.8572 41.8521 15.528C41.4201 14.712 40.7001 14.472 39.6921 14.808C38.7081 15.12 37.6761 15.696 36.5961 16.536C35.5401 17.376 34.5441 18.36 33.6081 19.488V22.735L28.9281 23.1482V11.352L33.6081 12.36V13.836C35.7441 11.844 37.6161 10.896 39.2241 10.992C39.9921 11.04 41.3361 12 43.2561 13.872C45.2001 15.72 46.2321 16.98 46.3521 17.652C46.404 17.9888 46.4418 19.3048 46.4656 21.5998L42.1075 21.9846ZM42.1029 22.9889C42.093 24.5989 42.0694 26.4679 42.0321 28.596L46.4961 29.604C46.4961 26.7699 46.489 24.4362 46.4747 22.6029L42.1029 22.9889ZM50.4086 22.2556V28.596L54.9086 29.604V21.8583L50.4086 22.2556ZM63.585 20.0884C63.5665 17.3205 63.4824 15.8003 63.3326 15.528C62.8766 14.688 62.1326 14.448 61.1006 14.808C60.0926 15.144 59.0366 15.768 57.9326 16.68C56.8526 17.568 55.8446 18.576 54.9086 19.704V20.8544L50.4086 21.2517V3L54.9086 4.008V14.016C57.1406 11.88 59.0726 10.872 60.7046 10.992C61.4726 11.04 62.8166 12 64.7366 13.872C66.6806 15.72 67.7126 16.98 67.8326 17.652C67.8679 17.8816 67.8968 18.5662 67.9191 19.7057L63.585 20.0884ZM63.5887 21.0919C63.5909 23.07 63.5655 25.5714 63.5126 28.596L67.9766 29.604C67.9766 25.679 67.9629 22.7137 67.9355 20.7082L63.5887 21.0919ZM71.8891 20.3591V28.596L76.3891 29.604V19.9618L71.8891 20.3591ZM85.038 18.1943C84.9992 16.6188 84.9242 15.73 84.8131 15.528C84.3571 14.688 83.6131 14.448 82.5811 14.808C81.5731 15.144 80.5171 15.768 79.4131 16.68C78.5979 17.3503 77.8237 18.089 77.0905 18.896L71.8891 19.3552V3L76.3891 4.008V14.016C78.6211 11.88 80.5531 10.872 82.1851 10.992C82.9531 11.04 84.2971 12 86.2171 13.872C88.1611 15.72 89.1931 16.98 89.3131 17.652C89.3193 17.6924 89.3253 17.7468 89.3311 17.8153L85.038 18.1943ZM85.0566 19.1966C85.0858 21.373 85.0646 24.5061 84.9931 28.596L89.4571 29.604C89.4571 24.1642 89.4307 20.5679 89.3781 18.815L85.0566 19.1966ZM12.144 19.416L15.24 10.92L18.336 18.984L12.144 19.416Z"/>
</mask>
<path fill-rule="evenodd" clip-rule="evenodd" d="M4.16732 26.3382L3.35999 28.56L8.39999 29.604L9.78177 25.8425L4.16732 26.3382ZM20.2316 23.916L19.488 21.972L10.992 22.548L10.1629 24.8049L4.54419 25.301L12.072 4.584L17.04 6.06L17.004 6.168L24.1673 23.5685L20.2316 23.916ZM20.603 24.8871L22.008 28.56L26.652 29.604L24.5661 24.5372L20.603 24.8871ZM28.9281 24.1521V28.596L33.6081 29.604V23.7389L28.9281 24.1521ZM42.1075 21.9846C42.1183 18.0094 42.0332 15.8572 41.8521 15.528C41.4201 14.712 40.7001 14.472 39.6921 14.808C38.7081 15.12 37.6761 15.696 36.5961 16.536C35.5401 17.376 34.5441 18.36 33.6081 19.488V22.735L28.9281 23.1482V11.352L33.6081 12.36V13.836C35.7441 11.844 37.6161 10.896 39.2241 10.992C39.9921 11.04 41.3361 12 43.2561 13.872C45.2001 15.72 46.2321 16.98 46.3521 17.652C46.404 17.9888 46.4418 19.3048 46.4656 21.5998L42.1075 21.9846ZM42.1029 22.9889C42.093 24.5989 42.0694 26.4679 42.0321 28.596L46.4961 29.604C46.4961 26.7699 46.489 24.4362 46.4747 22.6029L42.1029 22.9889ZM50.4086 22.2556V28.596L54.9086 29.604V21.8583L50.4086 22.2556ZM63.585 20.0884C63.5665 17.3205 63.4824 15.8003 63.3326 15.528C62.8766 14.688 62.1326 14.448 61.1006 14.808C60.0926 15.144 59.0366 15.768 57.9326 16.68C56.8526 17.568 55.8446 18.576 54.9086 19.704V20.8544L50.4086 21.2517V3L54.9086 4.008V14.016C57.1406 11.88 59.0726 10.872 60.7046 10.992C61.4726 11.04 62.8166 12 64.7366 13.872C66.6806 15.72 67.7126 16.98 67.8326 17.652C67.8679 17.8816 67.8968 18.5662 67.9191 19.7057L63.585 20.0884ZM63.5887 21.0919C63.5909 23.07 63.5655 25.5714 63.5126 28.596L67.9766 29.604C67.9766 25.679 67.9629 22.7137 67.9355 20.7082L63.5887 21.0919ZM71.8891 20.3591V28.596L76.3891 29.604V19.9618L71.8891 20.3591ZM85.038 18.1943C84.9992 16.6188 84.9242 15.73 84.8131 15.528C84.3571 14.688 83.6131 14.448 82.5811 14.808C81.5731 15.144 80.5171 15.768 79.4131 16.68C78.5979 17.3503 77.8237 18.089 77.0905 18.896L71.8891 19.3552V3L76.3891 4.008V14.016C78.6211 11.88 80.5531 10.872 82.1851 10.992C82.9531 11.04 84.2971 12 86.2171 13.872C88.1611 15.72 89.1931 16.98 89.3131 17.652C89.3193 17.6924 89.3253 17.7468 89.3311 17.8153L85.038 18.1943ZM85.0566 19.1966C85.0858 21.373 85.0646 24.5061 84.9931 28.596L89.4571 29.604C89.4571 24.1642 89.4307 20.5679 89.3781 18.815L85.0566 19.1966ZM12.144 19.416L15.24 10.92L18.336 18.984L12.144 19.416Z" fill="#F5F5F5"/>
<path d="M3.35996 28.56L1.4802 27.877L0.690766 30.0496L2.95428 30.5184L3.35996 28.56ZM4.16729 26.3382L3.9914 24.3459L2.72256 24.4579L2.28754 25.6551L4.16729 26.3382ZM8.39996 29.604L7.99428 31.5624L9.68273 31.9122L10.2773 30.2936L8.39996 29.604ZM9.78174 25.8425L11.6591 26.5321L12.7461 23.573L9.60585 23.8502L9.78174 25.8425ZM20.2316 23.916L18.3636 24.6305L18.9031 26.041L20.4074 25.9082L20.2316 23.916ZM19.488 21.972L21.356 21.2575L20.8278 19.8766L19.3527 19.9766L19.488 21.972ZM10.992 22.548L10.8567 20.5526L9.56205 20.6404L9.11462 21.8584L10.992 22.548ZM10.1629 24.8049L10.3388 26.7972L11.6027 26.6856L12.0402 25.4946L10.1629 24.8049ZM4.54416 25.301L2.66441 24.618L1.59196 27.5694L4.72005 27.2932L4.54416 25.301ZM12.072 4.584L12.6416 2.66683L10.8356 2.13028L10.1922 3.90097L12.072 4.584ZM17.04 6.06L18.9373 6.69247L19.591 4.73151L17.6096 4.14283L17.04 6.06ZM17.004 6.168L15.1066 5.53553L14.8713 6.24136L15.1545 6.92936L17.004 6.168ZM24.1673 23.5685L24.3432 25.5608L27.0519 25.3216L26.0167 22.8071L24.1673 23.5685ZM22.008 28.56L20.14 29.2745L20.5231 30.2761L21.5693 30.5113L22.008 28.56ZM20.603 24.8871L20.4271 22.8948L17.7887 23.1278L18.735 25.6016L20.603 24.8871ZM26.652 29.604L26.2133 31.5553L29.9653 32.3988L28.5014 28.8426L26.652 29.604ZM24.5661 24.5372L26.4155 23.7758L25.8555 22.4156L24.3902 22.5449L24.5661 24.5372ZM28.9281 28.596H26.9281V30.2111L28.507 30.5512L28.9281 28.596ZM28.9281 24.1521L28.7522 22.1598L26.9281 22.3209V24.1521H28.9281ZM33.6081 29.604L33.187 31.5592L35.6081 32.0806V29.604H33.6081ZM33.6081 23.7389H35.6081V21.5545L33.4322 21.7466L33.6081 23.7389ZM42.1074 21.9846L40.1074 21.9791L40.1015 24.1695L42.2833 23.9768L42.1074 21.9846ZM41.8521 15.528L40.0845 16.4638L40.092 16.4779L40.0997 16.4918L41.8521 15.528ZM39.6921 14.808L40.2966 16.7145L40.3106 16.71L40.3246 16.7054L39.6921 14.808ZM36.5961 16.536L35.3682 14.9573L35.3596 14.964L35.3511 14.9708L36.5961 16.536ZM33.6081 19.488L32.069 18.2109L31.6081 18.7663V19.488H33.6081ZM33.6081 22.735L33.784 24.7272L35.6081 24.5662V22.735H33.6081ZM28.9281 23.1482H26.9281V25.3325L29.104 25.1404L28.9281 23.1482ZM28.9281 11.352L29.3492 9.39684L26.9281 8.87537V11.352H28.9281ZM33.6081 12.36H35.6081V10.7449L34.0292 10.4048L33.6081 12.36ZM33.6081 13.836H31.6081V18.4359L34.9722 15.2987L33.6081 13.836ZM39.2241 10.992L39.3489 8.99589L39.3433 8.99555L39.2241 10.992ZM43.2561 13.872L41.8599 15.304L41.869 15.3128L41.8781 15.3216L43.2561 13.872ZM46.3521 17.652L48.3289 17.3479L48.3252 17.3241L48.321 17.3004L46.3521 17.652ZM46.4656 21.5998L46.6415 23.5921L48.4847 23.4293L48.4655 21.579L46.4656 21.5998ZM42.0321 28.596L40.0324 28.561L40.004 30.1884L41.5916 30.5469L42.0321 28.596ZM42.1029 22.9889L41.927 20.9966L40.1142 21.1567L40.1029 22.9765L42.1029 22.9889ZM46.4961 29.604L46.0556 31.5549L48.4961 32.106V29.604H46.4961ZM46.4747 22.6029L48.4746 22.5873L48.4577 20.4201L46.2988 20.6107L46.4747 22.6029ZM50.4086 28.596H48.4086V30.1976L49.9714 30.5476L50.4086 28.596ZM50.4086 22.2556L50.2327 20.2633L48.4086 20.4244V22.2556H50.4086ZM54.9086 29.604L54.4714 31.5556L56.9086 32.1016V29.604H54.9086ZM54.9086 21.8583H56.9086V19.6739L54.7327 19.866L54.9086 21.8583ZM63.5849 20.0884L61.585 20.1017L61.5994 22.2715L63.7608 22.0806L63.5849 20.0884ZM63.3326 15.528L61.5748 16.4822L61.5801 16.4918L63.3326 15.528ZM61.1006 14.808L61.733 16.7054L61.7462 16.701L61.7593 16.6964L61.1006 14.808ZM57.9326 16.68L59.2028 18.2249L59.2063 18.2219L57.9326 16.68ZM54.9086 19.704L53.3695 18.4269L52.9086 18.9823V19.704H54.9086ZM54.9086 20.8544L55.0845 22.8467L56.9086 22.6856V20.8544H54.9086ZM50.4086 21.2517H48.4086V23.4361L50.5845 23.244L50.4086 21.2517ZM50.4086 3L50.8457 1.04836L48.4086 0.502438V3H50.4086ZM54.9086 4.008H56.9086V2.40644L55.3457 2.05636L54.9086 4.008ZM54.9086 14.016H52.9086V18.6983L56.2914 15.4609L54.9086 14.016ZM60.7046 10.992L60.5579 12.9866L60.5689 12.9874L60.5798 12.9881L60.7046 10.992ZM64.7366 13.872L63.3404 15.304L63.3494 15.3128L63.3586 15.3216L64.7366 13.872ZM67.8326 17.652L69.8093 17.3479L69.8057 17.3241L69.8014 17.3004L67.8326 17.652ZM67.9191 19.7057L68.095 21.698L69.9553 21.5337L69.9187 19.6666L67.9191 19.7057ZM63.5126 28.596L61.5129 28.561L61.4844 30.1884L63.0721 30.5469L63.5126 28.596ZM63.5887 21.0919L63.4128 19.0997L61.5867 19.2609L61.5887 21.0941L63.5887 21.0919ZM67.9766 29.604L67.5361 31.5549L69.9766 32.106V29.604H67.9766ZM67.9354 20.7082L69.9353 20.6808L69.9058 18.5264L67.7596 18.7159L67.9354 20.7082ZM71.889 28.596H69.889V30.1976L71.4519 30.5476L71.889 28.596ZM71.889 20.3591L71.7132 18.3669L69.889 18.5279V20.3591H71.889ZM76.389 29.604L75.9519 31.5556L78.389 32.1016V29.604H76.389ZM76.389 19.9618H78.389V17.7775L76.2132 17.9696L76.389 19.9618ZM85.038 18.1943L83.0386 18.2436L83.0911 20.374L85.2139 20.1866L85.038 18.1943ZM84.8131 15.528L83.0553 16.4822L83.0606 16.4918L84.8131 15.528ZM82.581 14.808L83.2135 16.7054L83.2267 16.701L83.2398 16.6964L82.581 14.808ZM79.413 16.68L80.6833 18.2249L80.6868 18.2219L79.413 16.68ZM77.0904 18.896L77.2663 20.8883L78.0451 20.8195L78.5708 20.2409L77.0904 18.896ZM71.889 19.3552H69.889V21.5396L72.0649 21.3475L71.889 19.3552ZM71.889 3L72.3262 1.04836L69.889 0.502438V3H71.889ZM76.389 4.008H78.389V2.40644L76.8262 2.05636L76.389 4.008ZM76.389 14.016H74.389V18.6982L77.7718 15.4609L76.389 14.016ZM82.1851 10.992L82.0384 12.9866L82.0493 12.9874L82.0603 12.9881L82.1851 10.992ZM86.2171 13.872L84.8208 15.304L84.8299 15.3128L84.8391 15.3216L86.2171 13.872ZM89.3131 17.652L91.2898 17.3479L91.2861 17.3241L91.2819 17.3004L89.3131 17.652ZM89.3311 17.8153L89.507 19.8076L91.4923 19.6323L91.3239 17.6464L89.3311 17.8153ZM84.9931 28.596L82.9934 28.561L82.9649 30.1884L84.5525 30.5469L84.9931 28.596ZM85.0566 19.1966L84.8807 17.2043L83.0319 17.3676L83.0568 19.2234L85.0566 19.1966ZM89.457 29.604L89.0165 31.5549L91.457 32.106V29.604H89.457ZM89.378 18.815L91.3771 18.755L91.3135 16.6364L89.2022 16.8228L89.378 18.815ZM15.24 10.92L17.1071 10.2032L15.1911 5.21268L13.3608 10.2352L15.24 10.92ZM12.144 19.416L10.2648 18.7312L9.21013 21.6255L12.2832 21.4112L12.144 19.416ZM18.336 18.984L18.4752 20.9792L21.1721 20.791L20.2031 18.2672L18.336 18.984ZM5.23971 29.243L6.04704 27.0212L2.28754 25.6551L1.4802 27.877L5.23971 29.243ZM8.80563 27.6456L3.76563 26.6016L2.95428 30.5184L7.99428 31.5624L8.80563 27.6456ZM7.9044 25.1528L6.52262 28.9144L10.2773 30.2936L11.6591 26.5321L7.9044 25.1528ZM9.60585 23.8502L3.9914 24.3459L4.34318 28.3304L9.95764 27.8347L9.60585 23.8502ZM22.0996 23.2014L21.356 21.2575L17.62 22.6865L18.3636 24.6305L22.0996 23.2014ZM19.3527 19.9766L10.8567 20.5526L11.1272 24.5434L19.6232 23.9674L19.3527 19.9766ZM9.11462 21.8584L8.28554 24.1153L12.0402 25.4946L12.8693 23.2376L9.11462 21.8584ZM4.72005 27.2932L10.3388 26.7972L9.98699 22.8127L4.36827 23.3087L4.72005 27.2932ZM6.42391 25.984L13.9517 5.26703L10.1922 3.90097L2.66441 24.618L6.42391 25.984ZM11.5024 6.50118L16.4704 7.97718L17.6096 4.14283L12.6416 2.66683L11.5024 6.50118ZM15.1426 5.42753L15.1066 5.53553L18.9013 6.80047L18.9373 6.69247L15.1426 5.42753ZM15.1545 6.92936L22.3179 24.3299L26.0167 22.8071L18.8534 5.40664L15.1545 6.92936ZM20.4074 25.9082L24.3432 25.5608L23.9914 21.5763L20.0557 21.9237L20.4074 25.9082ZM23.876 27.8455L22.471 24.1725L18.735 25.6016L20.14 29.2745L23.876 27.8455ZM27.0906 27.6527L22.4466 26.6087L21.5693 30.5113L26.2133 31.5553L27.0906 27.6527ZM22.7167 25.2985L24.8025 30.3654L28.5014 28.8426L26.4155 23.7758L22.7167 25.2985ZM24.3902 22.5449L20.4271 22.8948L20.7789 26.8793L24.742 26.5294L24.3902 22.5449ZM30.9281 28.596V24.1521H26.9281V28.596H30.9281ZM34.0292 27.6488L29.3492 26.6408L28.507 30.5512L33.187 31.5592L34.0292 27.6488ZM31.6081 23.7389V29.604H35.6081V23.7389H31.6081ZM33.4322 21.7466L28.7522 22.1598L29.104 26.1443L33.784 25.7311L33.4322 21.7466ZM44.1074 21.9901C44.1129 19.9935 44.0944 18.4285 44.0502 17.31C44.0282 16.7542 43.9988 16.2788 43.9585 15.9034C43.9386 15.7174 43.9127 15.5249 43.8766 15.3445C43.8517 15.2197 43.7846 14.8915 43.6045 14.5642L40.0997 16.4918C39.9649 16.2468 39.9401 16.0579 39.9544 16.1293C39.9575 16.1451 39.968 16.2059 39.9813 16.33C40.0076 16.5749 40.0327 16.9478 40.0533 17.4681C40.0942 18.5018 40.1128 20.0005 40.1074 21.9791L44.1074 21.9901ZM43.6197 14.5922C43.2182 13.8338 42.5699 13.1551 41.6206 12.8386C40.7144 12.5366 39.814 12.6592 39.0597 12.9106L40.3246 16.7054C40.5783 16.6208 40.5418 16.6954 40.3557 16.6334C40.2609 16.6018 40.1796 16.5505 40.1227 16.4983C40.0707 16.4507 40.0645 16.4259 40.0845 16.4638L43.6197 14.5922ZM39.0876 12.9015C37.818 13.3041 36.5778 14.0166 35.3682 14.9573L37.824 18.1147C38.7745 17.3754 39.5982 16.9359 40.2966 16.7145L39.0876 12.9015ZM35.3511 14.9708C34.1786 15.9034 33.0854 16.986 32.069 18.2109L35.1472 20.7651C36.0029 19.734 36.9016 18.8486 37.8412 18.1012L35.3511 14.9708ZM31.6081 19.488V22.735H35.6081V19.488H31.6081ZM29.104 25.1404L33.784 24.7272L33.4322 20.7427L28.7522 21.1559L29.104 25.1404ZM30.9281 23.1482V11.352H26.9281V23.1482H30.9281ZM28.507 13.3072L33.187 14.3152L34.0292 10.4048L29.3492 9.39684L28.507 13.3072ZM31.6081 12.36V13.836H35.6081V12.36H31.6081ZM34.9722 15.2987C37.0063 13.4017 38.3485 12.9433 39.1049 12.9884L39.3433 8.99555C36.8837 8.84871 34.482 10.2863 32.2441 12.3733L34.9722 15.2987ZM39.0994 12.9881C38.8747 12.9741 39.0014 12.9153 39.6456 13.3755C40.2001 13.7715 40.9338 14.4011 41.8599 15.304L44.6523 12.44C43.6584 11.4709 42.7602 10.6845 41.9706 10.1205C41.2708 9.62069 40.3416 9.05794 39.3489 8.99589L39.0994 12.9881ZM41.8781 15.3216C42.8231 16.2198 43.5001 16.9321 43.9409 17.4703C44.1613 17.7394 44.297 17.9341 44.3733 18.062C44.4632 18.2128 44.4143 18.1776 44.3833 18.0036L48.321 17.3004C48.2299 16.7904 48.007 16.3457 47.8089 16.0135C47.5972 15.6584 47.331 15.2966 47.0354 14.9357C46.4442 14.2139 45.6332 13.3722 44.6341 12.4224L41.8781 15.3216ZM44.3754 17.9561C44.3717 17.9326 44.3801 17.9894 44.3913 18.1965C44.4012 18.3794 44.411 18.6284 44.4202 18.9491C44.4386 19.5891 44.4539 20.4778 44.4657 21.6206L48.4655 21.579C48.4535 20.4268 48.438 19.51 48.4185 18.8341C48.4009 18.2197 48.3778 17.666 48.3289 17.3479L44.3754 17.9561ZM42.2833 23.9768L46.6415 23.5921L46.2897 19.6076L41.9315 19.9923L42.2833 23.9768ZM44.0318 28.631C44.0691 26.4976 44.0928 24.6208 44.1029 23.0013L40.1029 22.9765C40.093 24.577 40.0696 26.4383 40.0324 28.561L44.0318 28.631ZM46.9366 27.6531L42.4726 26.6451L41.5916 30.5469L46.0556 31.5549L46.9366 27.6531ZM44.4747 22.6185C44.489 24.4446 44.4961 26.7727 44.4961 29.604H48.4961C48.4961 26.7672 48.489 24.4278 48.4746 22.5873L44.4747 22.6185ZM46.2988 20.6107L41.927 20.9966L42.2788 24.9811L46.6506 24.5952L46.2988 20.6107ZM52.4086 28.596V22.2556H48.4086V28.596H52.4086ZM55.3457 27.6524L50.8457 26.6444L49.9714 30.5476L54.4714 31.5556L55.3457 27.6524ZM52.9086 21.8583V29.604H56.9086V21.8583H52.9086ZM54.7327 19.866L50.2327 20.2633L50.5845 24.2478L55.0845 23.8505L54.7327 19.866ZM65.5849 20.0751C65.5756 18.6802 65.5497 17.5703 65.505 16.7619C65.4828 16.3608 65.4543 16.0027 65.4158 15.7074C65.3967 15.5608 65.3714 15.4006 65.3355 15.2435C65.3083 15.1242 65.2418 14.8492 65.085 14.5642L61.5801 16.4918C61.5106 16.3654 61.475 16.2638 61.461 16.2214C61.4447 16.1723 61.4373 16.1402 61.4358 16.1337C61.4333 16.1228 61.4393 16.1476 61.4494 16.225C61.4694 16.3779 61.4912 16.6239 61.5111 16.9829C61.5504 17.6945 61.5758 18.7286 61.585 20.1017L65.5849 20.0751ZM65.0903 14.5738C64.6748 13.8084 64.0116 13.1259 63.0466 12.8146C62.1234 12.5168 61.2091 12.6519 60.4418 12.9196L61.7593 16.6964C62.0241 16.6041 61.9977 16.6792 61.8186 16.6214C61.7278 16.5921 61.6509 16.5441 61.5987 16.4971C61.5515 16.4547 61.55 16.4363 61.5749 16.4822L65.0903 14.5738ZM60.4681 12.9106C59.1605 13.3465 57.8908 14.1203 56.6588 15.1381L59.2063 18.2219C60.1823 17.4157 61.0247 16.9415 61.733 16.7054L60.4681 12.9106ZM56.6624 15.1352C55.4799 16.1074 54.3825 17.206 53.3695 18.4269L56.4477 20.9811C57.3066 19.946 58.2253 19.0286 59.2028 18.2249L56.6624 15.1352ZM52.9086 19.704V20.8544H56.9086V19.704H52.9086ZM50.5845 23.244L55.0845 22.8467L54.7327 18.8622L50.2327 19.2595L50.5845 23.244ZM52.4086 21.2517V3H48.4086V21.2517H52.4086ZM49.9714 4.95164L54.4714 5.95964L55.3457 2.05636L50.8457 1.04836L49.9714 4.95164ZM52.9086 4.008V14.016H56.9086V4.008H52.9086ZM56.2914 15.4609C58.4437 13.4012 59.8245 12.9327 60.5579 12.9866L60.8512 8.99738C58.3207 8.81131 55.8375 10.3588 53.5258 12.5711L56.2914 15.4609ZM60.5798 12.9881C60.3551 12.9741 60.4819 12.9153 61.1261 13.3755C61.6805 13.7715 62.4143 14.4011 63.3404 15.304L66.1328 12.44C65.1389 11.4709 64.2406 10.6845 63.4511 10.1205C62.7513 9.62069 61.822 9.05794 60.8293 8.99589L60.5798 12.9881ZM63.3586 15.3216C64.3035 16.2198 64.9805 16.9321 65.4213 17.4703C65.6417 17.7394 65.7775 17.9341 65.8538 18.062C65.9437 18.2128 65.8948 18.1776 65.8637 18.0036L69.8014 17.3004C69.7104 16.7904 69.4875 16.3457 69.2894 16.0135C69.0777 15.6584 68.8114 15.2966 68.5158 14.9357C67.9246 14.2139 67.1136 13.3722 66.1146 12.4224L63.3586 15.3216ZM65.8558 17.9561C65.8539 17.9438 65.8673 18.0623 65.8825 18.4218C65.896 18.7426 65.9084 19.1817 65.9194 19.7449L69.9187 19.6666C69.8977 18.5948 69.8701 17.7431 69.8093 17.3479L65.8558 17.9561ZM63.7608 22.0806L68.095 21.698L67.7432 17.7135L63.409 18.0961L63.7608 22.0806ZM65.5123 28.631C65.5653 25.5997 65.5909 23.0849 65.5887 21.0898L61.5887 21.0941C61.5908 23.0552 61.5657 25.5431 61.5129 28.561L65.5123 28.631ZM68.4171 27.6531L63.9531 26.6451L63.0721 30.5469L67.5361 31.5549L68.4171 27.6531ZM65.9356 20.7355C65.9629 22.727 65.9766 25.6812 65.9766 29.604H69.9766C69.9766 25.6767 69.9629 22.7004 69.9353 20.6808L65.9356 20.7355ZM67.7596 18.7159L63.4128 19.0997L63.7646 23.0842L68.1113 22.7004L67.7596 18.7159ZM73.889 28.596V20.3591H69.889V28.596H73.889ZM76.8262 27.6524L72.3262 26.6444L71.4519 30.5476L75.9519 31.5556L76.8262 27.6524ZM74.389 19.9618V29.604H78.389V19.9618H74.389ZM76.2132 17.9696L71.7132 18.3669L72.0649 22.3514L76.5649 21.9541L76.2132 17.9696ZM87.0374 18.145C87.0176 17.3427 86.988 16.6808 86.9455 16.178C86.9245 15.929 86.8978 15.6871 86.8611 15.4719C86.8383 15.3381 86.7724 14.9404 86.5655 14.5642L83.0606 16.4918C82.9645 16.3171 82.9285 16.1805 82.9237 16.163C82.9138 16.1266 82.9132 16.116 82.9181 16.1447C82.9279 16.2022 82.9432 16.3189 82.9597 16.5142C82.9923 16.9002 83.0195 17.4705 83.0386 18.2436L87.0374 18.145ZM86.5708 14.5738C86.1553 13.8084 85.4921 13.1259 84.5271 12.8146C83.6039 12.5168 82.6896 12.6519 81.9223 12.9196L83.2398 16.6964C83.5045 16.6041 83.4782 16.6792 83.299 16.6214C83.2083 16.5921 83.1314 16.5441 83.0791 16.4971C83.032 16.4547 83.0305 16.4363 83.0553 16.4822L86.5708 14.5738ZM81.9486 12.9106C80.641 13.3465 79.3713 14.1203 78.1393 15.1381L80.6868 18.2219C81.6628 17.4157 82.5051 16.9415 83.2135 16.7054L81.9486 12.9106ZM78.1428 15.1352C77.2504 15.8689 76.4063 16.6748 75.6101 17.5512L78.5708 20.2409C79.241 19.5031 79.9453 18.8317 80.6833 18.2249L78.1428 15.1352ZM72.0649 21.3475L77.2663 20.8883L76.9146 16.9038L71.7132 17.363L72.0649 21.3475ZM73.889 19.3552V3H69.889V19.3552H73.889ZM71.4519 4.95164L75.9519 5.95964L76.8262 2.05636L72.3262 1.04836L71.4519 4.95164ZM74.389 4.008V14.016H78.389V4.008H74.389ZM77.7718 15.4609C79.9241 13.4012 81.305 12.9327 82.0384 12.9866L82.3317 8.99738C79.8011 8.81131 77.318 10.3588 75.0062 12.5711L77.7718 15.4609ZM82.0603 12.9881C81.8356 12.9741 81.9624 12.9153 82.6066 13.3755C83.161 13.7715 83.8948 14.4011 84.8208 15.304L87.6133 12.44C86.6193 11.4709 85.7211 10.6845 84.9315 10.1205C84.2317 9.62069 83.3025 9.05794 82.3098 8.99589L82.0603 12.9881ZM84.8391 15.3216C85.784 16.2198 86.461 16.9321 86.9018 17.4703C87.1222 17.7394 87.2579 17.9341 87.3342 18.062C87.4241 18.2128 87.3753 18.1776 87.3442 18.0036L91.2819 17.3004C91.1908 16.7904 90.968 16.3457 90.7699 16.0135C90.5582 15.6584 90.2919 15.2966 89.9963 14.9357C89.4051 14.2139 88.5941 13.3722 87.595 12.4224L84.8391 15.3216ZM87.3363 17.9561C87.335 17.9477 87.3343 17.9423 87.3341 17.9406C87.3339 17.9388 87.3339 17.9394 87.3343 17.9426C87.335 17.9494 87.3364 17.9628 87.3382 17.9842L91.3239 17.6464C91.3165 17.5585 91.306 17.453 91.2898 17.3479L87.3363 17.9561ZM85.2139 20.1866L89.507 19.8076L89.1552 15.8231L84.8621 16.2021L85.2139 20.1866ZM86.9927 28.631C87.0644 24.535 87.086 21.3774 87.0564 19.1698L83.0568 19.2234C83.0855 21.3685 83.0648 24.4772 82.9934 28.561L86.9927 28.631ZM89.8976 27.6531L85.4336 26.6451L84.5525 30.5469L89.0165 31.5549L89.8976 27.6531ZM87.3789 18.8751C87.4306 20.5927 87.457 24.1584 87.457 29.604H91.457C91.457 24.17 91.4309 20.5431 91.3771 18.755L87.3789 18.8751ZM89.2022 16.8228L84.8807 17.2043L85.2325 21.1888L89.5539 20.8073L89.2022 16.8228ZM13.3608 10.2352L10.2648 18.7312L14.0231 20.1008L17.1191 11.6048L13.3608 10.2352ZM20.2031 18.2672L17.1071 10.2032L13.3728 11.6368L16.4688 19.7008L20.2031 18.2672ZM12.2832 21.4112L18.4752 20.9792L18.1968 16.9889L12.0048 17.4209L12.2832 21.4112Z" fill="#488259" style="mix-blend-mode:darken" mask="url(#path-1-outside-1_1_53)"/>
<mask id="path-3-outside-2_1_53" maskUnits="userSpaceOnUse" x="89" y="1" width="194" height="32" fill="black">
<rect fill="white" x="89" y="1" width="194" height="32"/>
<path fill-rule="evenodd" clip-rule="evenodd" d="M95.952 22.4003V24.16C95.952 24.88 96.42 25.732 97.356 26.716C98.316 27.676 99.42 28.42 100.668 28.948C101.94 29.5 102.936 29.572 103.656 29.164C104.592 28.66 105.756 27.772 107.148 26.5L106.176 25.384C105.36 25.912 104.628 26.296 103.98 26.536C103.356 26.752 102.84 26.812 102.432 26.716C102.024 26.62 101.676 26.428 101.388 26.14C101.1 25.852 100.896 25.468 100.776 24.988C100.656 24.508 100.548 23.98 100.452 23.404C100.397 22.9613 100.363 22.4973 100.35 22.012L95.952 22.4003ZM109.575 21.1976C109.597 22.3855 109.627 23.097 109.663 23.332C109.783 24.004 110.827 25.204 112.795 26.932C114.763 28.66 116.131 29.548 116.899 29.596C118.531 29.716 120.307 28.792 122.227 26.824V28.624L126.727 29.632V19.6832L122.227 20.0805V20.416C121.651 21.76 120.763 22.996 119.563 24.124C118.387 25.252 117.307 25.936 116.323 26.176C115.363 26.416 114.643 26.2 114.163 25.528C114.025 25.2382 113.946 23.6666 113.927 20.8133L109.575 21.1976ZM113.923 19.8097L109.559 20.1951C109.532 18.191 109.519 15.2527 109.519 11.38L113.983 12.388C113.939 15.3663 113.92 17.8403 113.923 19.8097ZM122.227 19.0766L126.727 18.6793V12.388L122.227 11.38V19.0766ZM131.993 19.2183C132.746 20.2014 133.678 21.1166 134.788 21.964L135.112 22.144C136.024 22.504 138.148 22.24 141.484 21.352C142.54 21.064 143.2 20.908 143.464 20.884C143.704 20.86 143.812 20.896 143.788 20.992C143.26 22.984 142.204 24.352 140.62 25.096C139.06 25.84 137.368 26.008 135.544 25.6C133.72 25.168 131.992 24.34 130.36 23.116L129.712 24.34C131.536 26.092 133.12 27.412 134.464 28.3C135.832 29.164 137.308 29.596 138.892 29.596C140.812 29.596 142.456 29.128 143.824 28.192C145.192 27.256 146.092 26.152 146.524 24.88C146.98 23.584 146.92 22.228 146.344 20.812C145.921 19.7728 145.207 18.8822 144.203 18.1403L131.993 19.2183ZM162.099 16.5603C162.126 17.2894 162.383 17.9867 162.873 18.652C163.689 19.852 164.757 20.956 166.077 21.964L166.401 22.144C167.313 22.504 169.437 22.24 172.773 21.352C173.829 21.064 174.489 20.908 174.753 20.884C174.993 20.86 175.101 20.896 175.077 20.992C174.549 22.984 173.493 24.352 171.909 25.096C170.349 25.84 168.657 26.008 166.833 25.6C165.009 25.168 163.281 24.34 161.649 23.116L161.001 24.34C162.825 26.092 164.409 27.412 165.753 28.3C167.121 29.164 168.597 29.596 170.181 29.596C172.101 29.596 173.745 29.128 175.113 28.192C176.481 27.256 177.381 26.152 177.813 24.88C178.269 23.584 178.209 22.228 177.633 20.812C177.057 19.396 175.941 18.256 174.285 17.392C173.925 17.2 173.121 17.248 171.873 17.536C170.625 17.8 169.473 18.064 168.417 18.328C167.361 18.592 166.809 18.616 166.761 18.4C166.605 17.6619 166.733 16.9002 167.143 16.1149L162.099 16.5603ZM167.874 15.0465L162.206 15.5469C162.363 14.8349 162.645 14.178 163.053 13.576C163.557 12.808 164.313 12.184 165.321 11.704C166.329 11.2 167.433 10.948 168.633 10.948C168.993 10.948 169.497 11.02 170.145 11.164C170.817 11.308 171.753 11.56 172.953 11.92C174.177 12.256 174.945 12.46 175.257 12.532L174.87 14.4288L174.713 14.4427C172.468 13.9389 170.981 13.734 170.253 13.828C169.292 13.9457 168.499 14.3518 167.874 15.0465ZM182.296 14.7771V24.16C182.296 24.88 182.764 25.732 183.7 26.716C184.66 27.676 185.764 28.42 187.012 28.948C188.284 29.5 189.28 29.572 190 29.164C190.936 28.66 192.1 27.772 193.492 26.5L192.52 25.384C191.704 25.912 190.972 26.296 190.324 26.536C189.7 26.752 189.184 26.812 188.776 26.716C188.368 26.62 188.02 26.428 187.732 26.14C187.444 25.852 187.24 25.468 187.12 24.988C187 24.508 186.892 23.98 186.796 23.404C186.724 22.828 186.688 22.216 186.688 21.568C186.712 20.92 186.724 20.272 186.724 19.624V18.436V14.3862L182.296 14.7771ZM191.797 12.9344L181.268 13.864H180.424L179.344 11.344H182.296V7.456L186.724 8.464V11.344H191.116L191.797 12.9344ZM198.456 13.3504C198.321 13.4817 198.189 13.6169 198.058 13.756C197.362 14.524 196.822 15.436 196.438 16.492C196.078 17.548 195.874 18.604 195.826 19.66C195.802 20.716 196.042 21.808 196.546 22.936C197.05 24.04 197.818 25.036 198.85 25.924C200.146 27.028 201.466 27.94 202.81 28.66C203.842 29.212 204.85 29.524 205.834 29.596C206.842 29.668 207.754 29.536 208.57 29.2C209.386 28.888 210.13 28.42 210.802 27.796C211.498 27.148 212.074 26.416 212.53 25.6C212.986 24.784 213.322 23.908 213.538 22.972C213.778 22.036 213.862 21.112 213.79 20.2C213.742 19.288 213.526 18.4 213.142 17.536C212.758 16.648 212.218 15.892 211.522 15.268C210.499 14.3505 209.223 13.4394 207.693 12.5348L198.456 13.3504ZM206.146 11.6676L199.781 12.2295C199.983 12.0829 200.189 11.9437 200.398 11.812C201.238 11.26 202.138 10.972 203.098 10.948C204.082 10.924 205.03 11.128 205.942 11.56C206.011 11.5958 206.078 11.6317 206.146 11.6676ZM95.952 21.3964V13.864H94.08L93 11.344H95.952V7.456L100.38 8.464V11.344H104.772L105.852 13.864H100.38V18.436V19.624C100.38 20.085 100.374 20.546 100.362 21.007L95.952 21.3964ZM141.252 17.3969L142.54 17.2832C142.223 17.2605 141.793 17.2984 141.252 17.3969ZM135.41 17.9127L131.332 18.2728C130.914 17.5696 130.746 16.832 130.828 16.06C130.948 15.148 131.26 14.32 131.764 13.576C132.268 12.808 133.024 12.184 134.032 11.704C135.04 11.2 136.144 10.948 137.344 10.948C137.704 10.948 138.208 11.02 138.856 11.164C139.528 11.308 140.464 11.56 141.664 11.92C142.888 12.256 143.656 12.46 143.968 12.532L143.572 14.476C141.244 13.948 139.708 13.732 138.964 13.828C137.788 13.972 136.864 14.548 136.192 15.556C135.638 16.366 135.378 17.1515 135.41 17.9127ZM202.99 15.484C204.694 14.068 206.338 13.9 207.922 14.98C208.858 15.628 209.434 16.54 209.65 17.716C209.866 18.868 209.758 20.008 209.326 21.136C208.894 22.24 208.294 23.284 207.526 24.268C206.782 25.252 205.894 25.888 204.862 26.176C203.854 26.464 202.87 26.344 201.91 25.816C201.718 25.696 201.538 25.564 201.37 25.42C200.026 24.268 199.618 22.552 200.146 20.272C200.626 18.28 201.574 16.684 202.99 15.484ZM222.245 15.016V12.352L217.745 11.344V28.588L222.245 29.596V18.724C222.989 17.524 223.685 16.66 224.333 16.132C224.981 15.58 225.845 15.364 226.925 15.484C228.029 15.58 229.325 16.18 230.813 17.284L233.297 13.684C232.337 13.036 231.149 12.412 229.733 11.812C228.317 11.188 227.309 10.876 226.709 10.876C225.485 10.876 223.997 12.256 222.245 15.016ZM235.463 6.52C236.063 7.696 236.975 8.572 238.199 9.148C239.567 8.452 240.455 7.588 240.863 6.556C240.287 5.404 239.387 4.552 238.163 4C237.755 4.096 237.215 4.444 236.543 5.044C235.871 5.644 235.511 6.136 235.463 6.52ZM240.359 29.596V12.352L235.859 11.344V28.588L240.359 29.596ZM257.256 15.808L249.084 21.388C249.084 19.564 249.408 18.052 250.056 16.852C250.704 15.628 251.628 14.872 252.828 14.584C254.052 14.296 255.528 14.704 257.256 15.808ZM252.18 26.356C251.34 26.164 250.584 25.66 249.912 24.844L252.72 22.792C254.616 21.424 256.5 20.044 258.372 18.652C260.268 17.236 261.228 16.492 261.252 16.42C260.004 15.244 258.432 14.044 256.536 12.82C254.664 11.572 253.248 10.948 252.288 10.948C250.824 10.948 249.468 11.452 248.22 12.46C246.996 13.444 246.084 14.644 245.484 16.06C244.908 17.476 244.704 19.012 244.872 20.668C245.04 22.3 245.664 23.716 246.744 24.916C248.568 26.908 250.512 28.3 252.576 29.092C253.992 29.62 255.42 29.62 256.86 29.092C258.3 28.588 260.064 27.568 262.152 26.032L261.432 25.312L260.064 23.8L259.344 23.08C258.504 23.776 257.772 24.34 257.148 24.772C256.524 25.18 255.744 25.6 254.808 26.032C253.896 26.44 253.02 26.548 252.18 26.356ZM277.622 14.476L278.018 12.532C277.706 12.46 276.938 12.256 275.714 11.92C274.514 11.56 273.578 11.308 272.906 11.164C272.258 11.02 271.754 10.948 271.394 10.948C270.194 10.948 269.09 11.2 268.082 11.704C267.074 12.184 266.318 12.808 265.814 13.576C265.31 14.32 264.998 15.148 264.878 16.06C264.782 16.972 265.034 17.836 265.634 18.652C266.45 19.852 267.518 20.956 268.838 21.964L269.162 22.144C270.074 22.504 272.198 22.24 275.534 21.352C276.59 21.064 277.25 20.908 277.514 20.884C277.754 20.86 277.862 20.896 277.838 20.992C277.31 22.984 276.254 24.352 274.67 25.096C273.11 25.84 271.418 26.008 269.594 25.6C267.77 25.168 266.042 24.34 264.41 23.116L263.762 24.34C265.586 26.092 267.17 27.412 268.514 28.3C269.882 29.164 271.358 29.596 272.942 29.596C274.862 29.596 276.506 29.128 277.874 28.192C279.242 27.256 280.142 26.152 280.574 24.88C281.03 23.584 280.97 22.228 280.394 20.812C279.818 19.396 278.702 18.256 277.046 17.392C276.686 17.2 275.882 17.248 274.634 17.536C273.386 17.8 272.234 18.064 271.178 18.328C270.122 18.592 269.57 18.616 269.522 18.4C269.33 17.488 269.57 16.54 270.242 15.556C270.914 14.548 271.838 13.972 273.014 13.828C273.758 13.732 275.294 13.948 277.622 14.476Z"/>
</mask>
<path fill-rule="evenodd" clip-rule="evenodd" d="M95.952 22.4003V24.16C95.952 24.88 96.42 25.732 97.356 26.716C98.316 27.676 99.42 28.42 100.668 28.948C101.94 29.5 102.936 29.572 103.656 29.164C104.592 28.66 105.756 27.772 107.148 26.5L106.176 25.384C105.36 25.912 104.628 26.296 103.98 26.536C103.356 26.752 102.84 26.812 102.432 26.716C102.024 26.62 101.676 26.428 101.388 26.14C101.1 25.852 100.896 25.468 100.776 24.988C100.656 24.508 100.548 23.98 100.452 23.404C100.397 22.9613 100.363 22.4973 100.35 22.012L95.952 22.4003ZM109.575 21.1976C109.597 22.3855 109.627 23.097 109.663 23.332C109.783 24.004 110.827 25.204 112.795 26.932C114.763 28.66 116.131 29.548 116.899 29.596C118.531 29.716 120.307 28.792 122.227 26.824V28.624L126.727 29.632V19.6832L122.227 20.0805V20.416C121.651 21.76 120.763 22.996 119.563 24.124C118.387 25.252 117.307 25.936 116.323 26.176C115.363 26.416 114.643 26.2 114.163 25.528C114.025 25.2382 113.946 23.6666 113.927 20.8133L109.575 21.1976ZM113.923 19.8097L109.559 20.1951C109.532 18.191 109.519 15.2527 109.519 11.38L113.983 12.388C113.939 15.3663 113.92 17.8403 113.923 19.8097ZM122.227 19.0766L126.727 18.6793V12.388L122.227 11.38V19.0766ZM131.993 19.2183C132.746 20.2014 133.678 21.1166 134.788 21.964L135.112 22.144C136.024 22.504 138.148 22.24 141.484 21.352C142.54 21.064 143.2 20.908 143.464 20.884C143.704 20.86 143.812 20.896 143.788 20.992C143.26 22.984 142.204 24.352 140.62 25.096C139.06 25.84 137.368 26.008 135.544 25.6C133.72 25.168 131.992 24.34 130.36 23.116L129.712 24.34C131.536 26.092 133.12 27.412 134.464 28.3C135.832 29.164 137.308 29.596 138.892 29.596C140.812 29.596 142.456 29.128 143.824 28.192C145.192 27.256 146.092 26.152 146.524 24.88C146.98 23.584 146.92 22.228 146.344 20.812C145.921 19.7728 145.207 18.8822 144.203 18.1403L131.993 19.2183ZM162.099 16.5603C162.126 17.2894 162.383 17.9867 162.873 18.652C163.689 19.852 164.757 20.956 166.077 21.964L166.401 22.144C167.313 22.504 169.437 22.24 172.773 21.352C173.829 21.064 174.489 20.908 174.753 20.884C174.993 20.86 175.101 20.896 175.077 20.992C174.549 22.984 173.493 24.352 171.909 25.096C170.349 25.84 168.657 26.008 166.833 25.6C165.009 25.168 163.281 24.34 161.649 23.116L161.001 24.34C162.825 26.092 164.409 27.412 165.753 28.3C167.121 29.164 168.597 29.596 170.181 29.596C172.101 29.596 173.745 29.128 175.113 28.192C176.481 27.256 177.381 26.152 177.813 24.88C178.269 23.584 178.209 22.228 177.633 20.812C177.057 19.396 175.941 18.256 174.285 17.392C173.925 17.2 173.121 17.248 171.873 17.536C170.625 17.8 169.473 18.064 168.417 18.328C167.361 18.592 166.809 18.616 166.761 18.4C166.605 17.6619 166.733 16.9002 167.143 16.1149L162.099 16.5603ZM167.874 15.0465L162.206 15.5469C162.363 14.8349 162.645 14.178 163.053 13.576C163.557 12.808 164.313 12.184 165.321 11.704C166.329 11.2 167.433 10.948 168.633 10.948C168.993 10.948 169.497 11.02 170.145 11.164C170.817 11.308 171.753 11.56 172.953 11.92C174.177 12.256 174.945 12.46 175.257 12.532L174.87 14.4288L174.713 14.4427C172.468 13.9389 170.981 13.734 170.253 13.828C169.292 13.9457 168.499 14.3518 167.874 15.0465ZM182.296 14.7771V24.16C182.296 24.88 182.764 25.732 183.7 26.716C184.66 27.676 185.764 28.42 187.012 28.948C188.284 29.5 189.28 29.572 190 29.164C190.936 28.66 192.1 27.772 193.492 26.5L192.52 25.384C191.704 25.912 190.972 26.296 190.324 26.536C189.7 26.752 189.184 26.812 188.776 26.716C188.368 26.62 188.02 26.428 187.732 26.14C187.444 25.852 187.24 25.468 187.12 24.988C187 24.508 186.892 23.98 186.796 23.404C186.724 22.828 186.688 22.216 186.688 21.568C186.712 20.92 186.724 20.272 186.724 19.624V18.436V14.3862L182.296 14.7771ZM191.797 12.9344L181.268 13.864H180.424L179.344 11.344H182.296V7.456L186.724 8.464V11.344H191.116L191.797 12.9344ZM198.456 13.3504C198.321 13.4817 198.189 13.6169 198.058 13.756C197.362 14.524 196.822 15.436 196.438 16.492C196.078 17.548 195.874 18.604 195.826 19.66C195.802 20.716 196.042 21.808 196.546 22.936C197.05 24.04 197.818 25.036 198.85 25.924C200.146 27.028 201.466 27.94 202.81 28.66C203.842 29.212 204.85 29.524 205.834 29.596C206.842 29.668 207.754 29.536 208.57 29.2C209.386 28.888 210.13 28.42 210.802 27.796C211.498 27.148 212.074 26.416 212.53 25.6C212.986 24.784 213.322 23.908 213.538 22.972C213.778 22.036 213.862 21.112 213.79 20.2C213.742 19.288 213.526 18.4 213.142 17.536C212.758 16.648 212.218 15.892 211.522 15.268C210.499 14.3505 209.223 13.4394 207.693 12.5348L198.456 13.3504ZM206.146 11.6676L199.781 12.2295C199.983 12.0829 200.189 11.9437 200.398 11.812C201.238 11.26 202.138 10.972 203.098 10.948C204.082 10.924 205.03 11.128 205.942 11.56C206.011 11.5958 206.078 11.6317 206.146 11.6676ZM95.952 21.3964V13.864H94.08L93 11.344H95.952V7.456L100.38 8.464V11.344H104.772L105.852 13.864H100.38V18.436V19.624C100.38 20.085 100.374 20.546 100.362 21.007L95.952 21.3964ZM141.252 17.3969L142.54 17.2832C142.223 17.2605 141.793 17.2984 141.252 17.3969ZM135.41 17.9127L131.332 18.2728C130.914 17.5696 130.746 16.832 130.828 16.06C130.948 15.148 131.26 14.32 131.764 13.576C132.268 12.808 133.024 12.184 134.032 11.704C135.04 11.2 136.144 10.948 137.344 10.948C137.704 10.948 138.208 11.02 138.856 11.164C139.528 11.308 140.464 11.56 141.664 11.92C142.888 12.256 143.656 12.46 143.968 12.532L143.572 14.476C141.244 13.948 139.708 13.732 138.964 13.828C137.788 13.972 136.864 14.548 136.192 15.556C135.638 16.366 135.378 17.1515 135.41 17.9127ZM202.99 15.484C204.694 14.068 206.338 13.9 207.922 14.98C208.858 15.628 209.434 16.54 209.65 17.716C209.866 18.868 209.758 20.008 209.326 21.136C208.894 22.24 208.294 23.284 207.526 24.268C206.782 25.252 205.894 25.888 204.862 26.176C203.854 26.464 202.87 26.344 201.91 25.816C201.718 25.696 201.538 25.564 201.37 25.42C200.026 24.268 199.618 22.552 200.146 20.272C200.626 18.28 201.574 16.684 202.99 15.484ZM222.245 15.016V12.352L217.745 11.344V28.588L222.245 29.596V18.724C222.989 17.524 223.685 16.66 224.333 16.132C224.981 15.58 225.845 15.364 226.925 15.484C228.029 15.58 229.325 16.18 230.813 17.284L233.297 13.684C232.337 13.036 231.149 12.412 229.733 11.812C228.317 11.188 227.309 10.876 226.709 10.876C225.485 10.876 223.997 12.256 222.245 15.016ZM235.463 6.52C236.063 7.696 236.975 8.572 238.199 9.148C239.567 8.452 240.455 7.588 240.863 6.556C240.287 5.404 239.387 4.552 238.163 4C237.755 4.096 237.215 4.444 236.543 5.044C235.871 5.644 235.511 6.136 235.463 6.52ZM240.359 29.596V12.352L235.859 11.344V28.588L240.359 29.596ZM257.256 15.808L249.084 21.388C249.084 19.564 249.408 18.052 250.056 16.852C250.704 15.628 251.628 14.872 252.828 14.584C254.052 14.296 255.528 14.704 257.256 15.808ZM252.18 26.356C251.34 26.164 250.584 25.66 249.912 24.844L252.72 22.792C254.616 21.424 256.5 20.044 258.372 18.652C260.268 17.236 261.228 16.492 261.252 16.42C260.004 15.244 258.432 14.044 256.536 12.82C254.664 11.572 253.248 10.948 252.288 10.948C250.824 10.948 249.468 11.452 248.22 12.46C246.996 13.444 246.084 14.644 245.484 16.06C244.908 17.476 244.704 19.012 244.872 20.668C245.04 22.3 245.664 23.716 246.744 24.916C248.568 26.908 250.512 28.3 252.576 29.092C253.992 29.62 255.42 29.62 256.86 29.092C258.3 28.588 260.064 27.568 262.152 26.032L261.432 25.312L260.064 23.8L259.344 23.08C258.504 23.776 257.772 24.34 257.148 24.772C256.524 25.18 255.744 25.6 254.808 26.032C253.896 26.44 253.02 26.548 252.18 26.356ZM277.622 14.476L278.018 12.532C277.706 12.46 276.938 12.256 275.714 11.92C274.514 11.56 273.578 11.308 272.906 11.164C272.258 11.02 271.754 10.948 271.394 10.948C270.194 10.948 269.09 11.2 268.082 11.704C267.074 12.184 266.318 12.808 265.814 13.576C265.31 14.32 264.998 15.148 264.878 16.06C264.782 16.972 265.034 17.836 265.634 18.652C266.45 19.852 267.518 20.956 268.838 21.964L269.162 22.144C270.074 22.504 272.198 22.24 275.534 21.352C276.59 21.064 277.25 20.908 277.514 20.884C277.754 20.86 277.862 20.896 277.838 20.992C277.31 22.984 276.254 24.352 274.67 25.096C273.11 25.84 271.418 26.008 269.594 25.6C267.77 25.168 266.042 24.34 264.41 23.116L263.762 24.34C265.586 26.092 267.17 27.412 268.514 28.3C269.882 29.164 271.358 29.596 272.942 29.596C274.862 29.596 276.506 29.128 277.874 28.192C279.242 27.256 280.142 26.152 280.574 24.88C281.03 23.584 280.97 22.228 280.394 20.812C279.818 19.396 278.702 18.256 277.046 17.392C276.686 17.2 275.882 17.248 274.634 17.536C273.386 17.8 272.234 18.064 271.178 18.328C270.122 18.592 269.57 18.616 269.522 18.4C269.33 17.488 269.57 16.54 270.242 15.556C270.914 14.548 271.838 13.972 273.014 13.828C273.758 13.732 275.294 13.948 277.622 14.476Z" fill="#F5F5F5"/>
<path d="M95.952 22.4003L95.7761 20.408L93.952 20.5691V22.4003H95.952ZM97.356 26.716L95.9069 28.0944L95.9241 28.1125L95.9418 28.1302L97.356 26.716ZM100.668 28.948L101.464 27.1133L101.456 27.1097L101.447 27.1061L100.668 28.948ZM103.656 29.164L102.708 27.4031L102.689 27.4133L102.67 27.424L103.656 29.164ZM107.148 26.5L108.497 27.9764L109.939 26.6591L108.656 25.1864L107.148 26.5ZM106.176 25.384L107.684 24.0704L106.545 22.7629L105.089 23.7049L106.176 25.384ZM103.98 26.536L104.634 28.426L104.655 28.419L104.675 28.4115L103.98 26.536ZM102.432 26.716L102.89 24.7692L102.89 24.7692L102.432 26.716ZM101.388 26.14L99.9738 27.5542L99.9738 27.5542L101.388 26.14ZM100.776 24.988L102.716 24.5029L102.716 24.5029L100.776 24.988ZM100.452 23.404L98.4674 23.6521L98.4725 23.6926L98.4792 23.7328L100.452 23.404ZM100.35 22.012L102.349 21.9592L102.293 19.8327L100.174 20.0198L100.35 22.012ZM109.663 23.332L107.686 23.6361L107.69 23.6599L107.694 23.6836L109.663 23.332ZM109.575 21.1976L109.399 19.2053L107.54 19.3694L107.575 21.2355L109.575 21.1976ZM112.795 26.932L114.114 25.4291L114.114 25.4291L112.795 26.932ZM116.899 29.596L117.045 27.6014L117.034 27.6006L117.023 27.5999L116.899 29.596ZM122.227 26.824H124.227V21.91L120.795 25.4274L122.227 26.824ZM122.227 28.624H120.227V30.2256L121.789 30.5756L122.227 28.624ZM126.727 29.632L126.289 31.5836L128.727 32.1296V29.632H126.727ZM126.727 19.6832H128.727V17.4989L126.551 17.691L126.727 19.6832ZM122.227 20.0805L122.051 18.0883L120.227 18.2493V20.0805H122.227ZM122.227 20.416L124.065 21.2038L124.227 20.8265V20.416H122.227ZM119.563 24.124L118.193 22.6667L118.185 22.6737L118.178 22.6806L119.563 24.124ZM116.323 26.176L115.849 24.2329L115.838 24.2357L116.323 26.176ZM114.163 25.528L112.357 26.3879L112.433 26.547L112.535 26.6905L114.163 25.528ZM113.927 20.8133L115.927 20.8L115.913 18.6302L113.751 18.821L113.927 20.8133ZM109.559 20.1951L107.559 20.2217L107.588 22.3769L109.735 22.1873L109.559 20.1951ZM113.923 19.8097L114.099 21.802L115.926 21.6407L115.923 19.8061L113.923 19.8097ZM109.519 11.38L109.959 9.42912L107.519 8.87803V11.38H109.519ZM113.983 12.388L115.982 12.4171L116.006 10.7945L114.423 10.4371L113.983 12.388ZM122.227 19.0766H120.227V21.261L122.403 21.0689L122.227 19.0766ZM126.727 18.6793L126.903 20.6716L128.727 20.5105V18.6793H126.727ZM126.727 12.388H128.727V10.7864L127.164 10.4364L126.727 12.388ZM122.227 11.38L122.664 9.42836L120.227 8.88244V11.38H122.227ZM134.788 21.964L133.574 23.5535L133.689 23.6417L133.816 23.7123L134.788 21.964ZM131.993 19.2183L131.817 17.226L128.191 17.5461L130.405 20.435L131.993 19.2183ZM135.112 22.144L134.14 23.8923L134.255 23.9561L134.377 24.0043L135.112 22.144ZM141.484 21.352L141.998 23.2847L142.01 23.2815L141.484 21.352ZM143.464 20.884L143.645 22.8758L143.654 22.875L143.663 22.8741L143.464 20.884ZM143.788 20.992L145.721 21.5044L145.724 21.4908L145.728 21.477L143.788 20.992ZM140.62 25.096L139.769 23.2857L139.759 23.2908L140.62 25.096ZM135.544 25.6L135.083 27.5462L135.095 27.549L135.107 27.5518L135.544 25.6ZM130.36 23.116L131.56 21.516L129.687 20.1117L128.592 22.1802L130.36 23.116ZM129.712 24.34L127.944 23.4042L127.238 24.7374L128.326 25.7824L129.712 24.34ZM134.464 28.3L133.361 29.9687L133.378 29.98L133.396 29.991L134.464 28.3ZM143.824 28.192L142.694 26.5414L142.694 26.5414L143.824 28.192ZM146.524 24.88L144.637 24.2162L144.633 24.2265L144.63 24.2368L146.524 24.88ZM146.344 20.812L144.491 21.5656L144.491 21.5656L146.344 20.812ZM144.203 18.1403L145.391 16.5315L144.782 16.0814L144.027 16.148L144.203 18.1403ZM162.873 18.652L164.526 17.5274L164.506 17.4969L164.484 17.4672L162.873 18.652ZM162.099 16.5603L161.923 14.568L160.031 14.735L160.1 16.6329L162.099 16.5603ZM166.077 21.964L164.863 23.5535L164.978 23.6417L165.105 23.7123L166.077 21.964ZM166.401 22.144L165.429 23.8923L165.544 23.9561L165.666 24.0043L166.401 22.144ZM172.773 21.352L173.287 23.2847L173.299 23.2815L172.773 21.352ZM174.753 20.884L174.934 22.8758L174.943 22.875L174.952 22.8741L174.753 20.884ZM175.077 20.992L177.01 21.5044L177.013 21.4908L177.017 21.4771L175.077 20.992ZM171.909 25.096L171.058 23.2857L171.048 23.2908L171.909 25.096ZM166.833 25.6L166.372 27.5462L166.384 27.549L166.396 27.5518L166.833 25.6ZM161.649 23.116L162.849 21.516L160.976 20.1117L159.881 22.1802L161.649 23.116ZM161.001 24.34L159.233 23.4042L158.527 24.7374L159.615 25.7824L161.001 24.34ZM165.753 28.3L164.65 29.9687L164.667 29.98L164.685 29.991L165.753 28.3ZM175.113 28.192L173.983 26.5414L173.983 26.5414L175.113 28.192ZM177.813 24.88L175.926 24.2162L175.922 24.2265L175.919 24.2368L177.813 24.88ZM177.633 20.812L175.78 21.5656L175.78 21.5656L177.633 20.812ZM174.285 17.392L173.343 19.1567L173.351 19.161L173.359 19.1652L174.285 17.392ZM171.873 17.536L172.287 19.4927L172.304 19.4889L172.322 19.4848L171.873 17.536ZM168.417 18.328L168.902 20.2683L168.902 20.2683L168.417 18.328ZM166.761 18.4L164.804 18.812L164.806 18.8229L164.808 18.8338L166.761 18.4ZM167.143 16.1149L168.916 17.0415L170.61 13.8011L166.967 14.1227L167.143 16.1149ZM162.206 15.5469L160.253 15.1178L159.668 17.7788L162.382 17.5392L162.206 15.5469ZM167.874 15.0465L168.05 17.0387L168.835 16.9694L169.362 16.3835L167.874 15.0465ZM163.053 13.576L164.708 14.6977L164.717 14.6856L164.725 14.6733L163.053 13.576ZM165.321 11.704L166.18 13.5097L166.198 13.5015L166.215 13.4929L165.321 11.704ZM170.145 11.164L169.711 13.1164L169.718 13.118L169.726 13.1196L170.145 11.164ZM172.953 11.92L172.378 13.8357L172.4 13.8424L172.423 13.8487L172.953 11.92ZM175.257 12.532L177.216 12.9312L177.605 11.0215L175.706 10.5832L175.257 12.532ZM174.87 14.4288L175.046 16.4211L176.532 16.2899L176.83 14.828L174.87 14.4288ZM174.713 14.4427L174.275 16.3942L174.579 16.4623L174.889 16.435L174.713 14.4427ZM170.253 13.828L170.496 15.8132L170.509 15.8116L170.253 13.828ZM182.296 14.7771L182.12 12.7849L180.296 12.9459V14.7771H182.296ZM183.7 26.716L182.251 28.0944L182.268 28.1125L182.286 28.1302L183.7 26.716ZM187.012 28.948L187.808 27.1133L187.799 27.1097L187.791 27.1061L187.012 28.948ZM190 29.164L189.052 27.4031L189.033 27.4133L189.014 27.424L190 29.164ZM193.492 26.5L194.841 27.9764L196.283 26.6591L195 25.1864L193.492 26.5ZM192.52 25.384L194.028 24.0704L192.889 22.7629L191.433 23.7049L192.52 25.384ZM190.324 26.536L190.978 28.426L190.998 28.419L191.018 28.4115L190.324 26.536ZM188.776 26.716L189.234 24.7692L189.234 24.7692L188.776 26.716ZM187.12 24.988L189.06 24.5029L189.06 24.5029L187.12 24.988ZM186.796 23.404L184.811 23.6521L184.816 23.6926L184.823 23.7328L186.796 23.404ZM186.688 21.568L184.689 21.494L184.688 21.531V21.568H186.688ZM186.724 14.3862H188.724V12.2018L186.548 12.3939L186.724 14.3862ZM181.268 13.864V15.864H181.356L181.444 15.8563L181.268 13.864ZM191.797 12.9344L191.973 14.9266L194.723 14.6838L193.636 12.1465L191.797 12.9344ZM180.424 13.864L178.585 14.6518L179.105 15.864H180.424V13.864ZM179.344 11.344V9.344H176.311L177.505 12.1318L179.344 11.344ZM182.296 11.344V13.344H184.296V11.344H182.296ZM182.296 7.456L182.74 5.50589L180.296 4.94955V7.456H182.296ZM186.724 8.464H188.724V6.86812L187.168 6.51389L186.724 8.464ZM186.724 11.344H184.724V13.344H186.724V11.344ZM191.116 11.344L192.954 10.5562L192.435 9.344H191.116V11.344ZM198.058 13.756L196.599 12.3881L196.588 12.4005L196.576 12.413L198.058 13.756ZM198.456 13.3504L198.28 11.3582L197.569 11.4209L197.058 11.9197L198.456 13.3504ZM196.438 16.492L194.559 15.8085L194.552 15.8275L194.545 15.8467L196.438 16.492ZM195.826 19.66L193.828 19.5692L193.827 19.5919L193.827 19.6146L195.826 19.66ZM196.546 22.936L194.72 23.7519L194.724 23.7593L194.727 23.7666L196.546 22.936ZM198.85 25.924L197.546 27.44L197.553 27.4465L198.85 25.924ZM202.81 28.66L201.866 30.423L201.867 30.4236L202.81 28.66ZM205.834 29.596L205.688 31.5907L205.692 31.5909L205.834 29.596ZM208.57 29.2L207.856 27.3319L207.832 27.341L207.809 27.3506L208.57 29.2ZM210.802 27.796L212.163 29.2616L212.165 29.2598L210.802 27.796ZM212.53 25.6L210.785 24.6244L210.785 24.6244L212.53 25.6ZM213.538 22.972L211.601 22.4753L211.595 22.4987L211.59 22.5223L213.538 22.972ZM213.79 20.2L211.793 20.3051L211.795 20.3313L211.797 20.3574L213.79 20.2ZM213.142 17.536L211.307 18.3298L211.311 18.3391L211.315 18.3483L213.142 17.536ZM211.522 15.268L212.857 13.7789L212.857 13.7789L211.522 15.268ZM207.693 12.5348L208.711 10.8134L208.158 10.486L207.517 10.5426L207.693 12.5348ZM199.781 12.2295L198.606 10.6108L192.754 14.8577L199.957 14.2217L199.781 12.2295ZM206.146 11.6676L206.322 13.6598L213.032 13.0674L207.086 9.90212L206.146 11.6676ZM200.398 11.812L201.463 13.5053L201.48 13.4945L201.497 13.4834L200.398 11.812ZM203.098 10.948L203.05 8.9486L203.048 8.94863L203.098 10.948ZM205.942 11.56L206.873 9.78976L206.836 9.77037L206.799 9.75252L205.942 11.56ZM95.952 21.3964H93.952V23.5807L96.1279 23.3886L95.952 21.3964ZM95.952 13.864H97.952V11.864H95.952V13.864ZM94.08 13.864L92.2417 14.6518L92.7612 15.864H94.08V13.864ZM93 11.344V9.344H89.9669L91.1617 12.1318L93 11.344ZM95.952 11.344V13.344H97.952V11.344H95.952ZM95.952 7.456L96.3959 5.50589L93.952 4.94955V7.456H95.952ZM100.38 8.464H102.38V6.86812L100.824 6.51389L100.38 8.464ZM100.38 11.344H98.38V13.344H100.38V11.344ZM104.772 11.344L106.61 10.5562L106.091 9.344H104.772V11.344ZM105.852 13.864V15.864H108.885L107.69 13.0762L105.852 13.864ZM100.38 13.864V11.864H98.38V13.864H100.38ZM100.362 21.007L100.538 22.9993L102.314 22.8425L102.361 21.0597L100.362 21.007ZM141.252 17.3969L140.894 15.4292L141.428 19.3892L141.252 17.3969ZM142.54 17.2832L142.716 19.2754L142.683 15.2883L142.54 17.2832ZM131.332 18.2728L129.612 19.2937L130.254 20.3757L131.508 20.265L131.332 18.2728ZM135.41 17.9127L135.586 19.9049L137.489 19.7369L137.408 17.828L135.41 17.9127ZM130.828 16.06L128.845 15.7991L128.841 15.8248L128.839 15.8506L130.828 16.06ZM131.764 13.576L133.419 14.6977L133.428 14.6856L133.436 14.6733L131.764 13.576ZM134.032 11.704L134.891 13.5097L134.909 13.5015L134.926 13.4929L134.032 11.704ZM138.856 11.164L138.422 13.1164L138.429 13.118L138.437 13.1196L138.856 11.164ZM141.664 11.92L141.089 13.8357L141.111 13.8424L141.134 13.8487L141.664 11.92ZM143.968 12.532L145.927 12.9312L146.316 11.0215L144.417 10.5832L143.968 12.532ZM143.572 14.476L143.129 16.4265L145.123 16.8787L145.531 14.8752L143.572 14.476ZM138.964 13.828L139.207 15.8132L139.22 15.8116L138.964 13.828ZM136.192 15.556L137.843 16.6839L137.849 16.6747L137.856 16.6654L136.192 15.556ZM207.922 14.98L209.061 13.3356L209.055 13.3316L209.049 13.3275L207.922 14.98ZM202.99 15.484L201.712 13.9458L201.705 13.952L201.697 13.9582L202.99 15.484ZM209.65 17.716L207.683 18.0773L207.685 18.0846L209.65 17.716ZM209.326 21.136L211.189 21.8648L211.192 21.8581L211.194 21.8513L209.326 21.136ZM207.526 24.268L205.95 23.0375L205.94 23.0496L205.931 23.0618L207.526 24.268ZM204.862 26.176L204.325 24.2496L204.313 24.253L204.862 26.176ZM201.91 25.816L200.85 27.512L200.898 27.5416L200.947 27.5684L201.91 25.816ZM201.37 25.42L200.069 26.9385L200.069 26.9385L201.37 25.42ZM200.146 20.272L198.202 19.8035L198.2 19.8121L198.198 19.8208L200.146 20.272ZM222.245 12.352H224.245V10.7504L222.682 10.4004L222.245 12.352ZM222.245 15.016H220.245V21.8986L223.933 16.0879L222.245 15.016ZM217.745 11.344L218.182 9.39236L215.745 8.84644V11.344H217.745ZM217.745 28.588H215.745V30.1896L217.308 30.5396L217.745 28.588ZM222.245 29.596L221.808 31.5476L224.245 32.0936V29.596H222.245ZM222.245 18.724L220.545 17.6701L220.245 18.1543V18.724H222.245ZM224.333 16.132L225.596 17.6825L225.613 17.6687L225.63 17.6545L224.333 16.132ZM226.925 15.484L226.704 17.4718L226.728 17.4744L226.752 17.4765L226.925 15.484ZM230.813 17.284L229.621 18.8902L231.283 20.1235L232.459 18.4199L230.813 17.284ZM233.297 13.684L234.943 14.8199L236.09 13.1568L234.416 12.0263L233.297 13.684ZM229.733 11.812L228.926 13.6422L228.939 13.6479L228.952 13.6535L229.733 11.812ZM238.199 9.148L237.347 10.9576L238.233 11.3745L239.106 10.9306L238.199 9.148ZM235.463 6.52L233.478 6.27199L233.402 6.88164L233.681 7.42893L235.463 6.52ZM240.863 6.556L242.723 7.29133L243.051 6.46058L242.652 5.66157L240.863 6.556ZM238.163 4L238.985 2.17683L238.366 1.8976L237.705 2.05317L238.163 4ZM236.543 5.044L237.875 6.53589L237.875 6.53587L236.543 5.044ZM240.359 12.352H242.359V10.7504L240.796 10.4004L240.359 12.352ZM240.359 29.596L239.922 31.5476L242.359 32.0936V29.596H240.359ZM235.859 11.344L236.296 9.39236L233.859 8.84644V11.344H235.859ZM235.859 28.588H233.859V30.1896L235.422 30.5396L235.859 28.588ZM249.084 21.388H247.084V25.1754L250.212 23.0397L249.084 21.388ZM257.256 15.808L258.384 17.4597L260.884 15.7525L258.333 14.1226L257.256 15.808ZM250.056 16.852L251.816 17.8023L251.82 17.795L251.823 17.7878L250.056 16.852ZM252.828 14.584L252.37 12.6371L252.361 12.6392L252.828 14.584ZM249.912 24.844L248.732 23.2292L247.021 24.4796L248.368 26.1154L249.912 24.844ZM252.18 26.356L251.734 28.3057L251.734 28.3057L252.18 26.356ZM252.72 22.792L251.55 21.1701L251.54 21.1772L252.72 22.792ZM258.372 18.652L259.565 20.2569L259.569 20.2544L258.372 18.652ZM261.252 16.42L263.149 17.0525L263.553 15.8406L262.624 14.9644L261.252 16.42ZM256.536 12.82L255.427 14.4841L255.439 14.4923L255.451 14.5003L256.536 12.82ZM248.22 12.46L249.473 14.0188L249.477 14.0159L248.22 12.46ZM245.484 16.06L243.642 15.2797L243.637 15.293L243.631 15.3064L245.484 16.06ZM244.872 20.668L242.882 20.8699L242.882 20.8728L244.872 20.668ZM246.744 24.916L245.257 26.2539L245.263 26.2603L245.269 26.2666L246.744 24.916ZM252.576 29.092L251.859 30.9593L251.868 30.9627L251.877 30.966L252.576 29.092ZM256.86 29.092L256.199 27.2043L256.185 27.2092L256.171 27.2142L256.86 29.092ZM262.152 26.032L263.337 27.643L265.212 26.2637L263.566 24.6178L262.152 26.032ZM261.432 25.312L259.949 26.6538L259.982 26.6909L260.018 26.7262L261.432 25.312ZM260.064 23.8L261.547 22.4582L261.513 22.4211L261.478 22.3858L260.064 23.8ZM259.344 23.08L260.758 21.6658L259.47 20.378L258.068 21.54L259.344 23.08ZM257.148 24.772L258.242 26.4459L258.265 26.4315L258.286 26.4164L257.148 24.772ZM254.808 26.032L255.625 27.8576L255.635 27.8528L255.646 27.8479L254.808 26.032ZM278.018 12.532L279.978 12.9312L280.367 11.0215L278.468 10.5832L278.018 12.532ZM277.622 14.476L277.18 16.4265L279.174 16.8787L279.582 14.8752L277.622 14.476ZM275.714 11.92L275.14 13.8357L275.162 13.8424L275.185 13.8487L275.714 11.92ZM272.906 11.164L272.472 13.1164L272.48 13.118L272.487 13.1196L272.906 11.164ZM268.082 11.704L268.942 13.5097L268.96 13.5015L268.977 13.4929L268.082 11.704ZM265.814 13.576L267.47 14.6977L267.478 14.6856L267.486 14.6733L265.814 13.576ZM264.878 16.06L262.895 15.7991L262.892 15.8248L262.889 15.8506L264.878 16.06ZM265.634 18.652L267.288 17.5274L267.267 17.4969L267.246 17.4672L265.634 18.652ZM268.838 21.964L267.625 23.5535L267.74 23.6417L267.867 23.7123L268.838 21.964ZM269.162 22.144L268.191 23.8923L268.306 23.9561L268.428 24.0043L269.162 22.144ZM275.534 21.352L276.049 23.2847L276.061 23.2815L275.534 21.352ZM277.514 20.884L277.695 22.8758L277.704 22.875L277.713 22.8741L277.514 20.884ZM277.838 20.992L279.772 21.5044L279.775 21.4908L279.779 21.4771L277.838 20.992ZM274.67 25.096L273.82 23.2857L273.809 23.2908L274.67 25.096ZM269.594 25.6L269.133 27.5462L269.146 27.549L269.158 27.5518L269.594 25.6ZM264.41 23.116L265.61 21.516L263.738 20.1117L262.643 22.1802L264.41 23.116ZM263.762 24.34L261.995 23.4042L261.289 24.7374L262.377 25.7824L263.762 24.34ZM268.514 28.3L267.412 29.9687L267.429 29.98L267.446 29.991L268.514 28.3ZM277.874 28.192L276.745 26.5414L276.745 26.5414L277.874 28.192ZM280.574 24.88L278.688 24.2162L278.684 24.2265L278.681 24.2368L280.574 24.88ZM280.394 20.812L282.247 20.0584L282.247 20.0584L280.394 20.812ZM277.046 17.392L276.105 19.1567L276.113 19.161L276.121 19.1652L277.046 17.392ZM274.634 17.536L275.048 19.4927L275.066 19.4889L275.084 19.4848L274.634 17.536ZM271.178 18.328L271.663 20.2683L271.663 20.2683L271.178 18.328ZM269.522 18.4L267.565 18.812L267.568 18.823L267.57 18.8339L269.522 18.4ZM270.242 15.556L271.894 16.6839L271.9 16.6747L271.906 16.6654L270.242 15.556ZM273.014 13.828L273.257 15.8132L273.27 15.8116L273.014 13.828ZM97.952 24.16V22.4003H93.952V24.16H97.952ZM98.8051 25.3376C98.4127 24.9251 98.1815 24.6046 98.056 24.3761C97.9296 24.1461 97.952 24.086 97.952 24.16H93.952C93.952 25.6894 94.8952 27.0308 95.9069 28.0944L98.8051 25.3376ZM101.447 27.1061C100.437 26.6786 99.5484 26.08 98.7702 25.3018L95.9418 28.1302C97.0836 29.272 98.4031 30.1614 99.8887 30.7899L101.447 27.1061ZM102.67 27.424C102.719 27.3963 102.7 27.4347 102.513 27.4212C102.309 27.4064 101.968 27.3318 101.464 27.1133L99.8718 30.7827C101.335 31.4179 103.093 31.782 104.642 30.904L102.67 27.424ZM105.799 25.0236C104.45 26.2559 103.429 27.0149 102.708 27.4031L104.604 30.9249C105.755 30.3051 107.062 29.2881 108.497 27.9764L105.799 25.0236ZM104.668 26.6976L105.64 27.8136L108.656 25.1864L107.684 24.0704L104.668 26.6976ZM104.675 28.4115C105.503 28.1047 106.369 27.6413 107.263 27.0631L105.089 23.7049C104.351 24.1827 103.753 24.4873 103.285 24.6605L104.675 28.4115ZM101.974 28.6628C102.906 28.8821 103.841 28.7006 104.634 28.426L103.326 24.646C103.116 24.7187 102.975 24.7469 102.894 24.7564C102.813 24.7658 102.822 24.7531 102.89 24.7692L101.974 28.6628ZM99.9738 27.5542C100.533 28.1131 101.215 28.4843 101.974 28.6628L102.89 24.7692C102.833 24.7557 102.819 24.7429 102.802 24.7258L99.9738 27.5542ZM98.8357 25.4731C99.0247 26.2292 99.3795 26.9599 99.9738 27.5542L102.802 24.7258C102.808 24.7313 102.8 24.7263 102.785 24.6977C102.769 24.6672 102.742 24.6066 102.716 24.5029L98.8357 25.4731ZM98.4792 23.7328C98.5825 24.3523 98.7008 24.9332 98.8357 25.4731L102.716 24.5029C102.611 24.0828 102.514 23.6077 102.425 23.0752L98.4792 23.7328ZM98.3505 22.0648C98.3649 22.6097 98.4033 23.1392 98.4674 23.6521L102.437 23.1559C102.39 22.7834 102.36 22.3848 102.349 21.9592L98.3505 22.0648ZM100.174 20.0198L95.7761 20.408L96.1279 24.3925L100.526 24.0043L100.174 20.0198ZM111.639 23.0279C111.641 23.039 111.627 22.9141 111.612 22.5397C111.598 22.2053 111.585 21.7471 111.574 21.1596L107.575 21.2355C107.596 22.3538 107.624 23.2345 107.686 23.6361L111.639 23.0279ZM114.114 25.4291C113.161 24.5917 112.482 23.9267 112.045 23.4233C111.826 23.1717 111.695 22.9925 111.624 22.8789C111.541 22.7442 111.598 22.7921 111.632 22.9804L107.694 23.6836C107.787 24.2079 108.02 24.6578 108.227 24.9911C108.448 25.3455 108.724 25.7003 109.027 26.0487C109.633 26.7453 110.461 27.5443 111.475 28.4349L114.114 25.4291ZM117.023 27.5999C117.195 27.6106 117.037 27.639 116.386 27.2164C115.816 26.8467 115.063 26.2626 114.114 25.4291L111.475 28.4349C112.494 29.3294 113.409 30.0533 114.208 30.5716C114.925 31.037 115.835 31.5334 116.774 31.5921L117.023 27.5999ZM120.795 25.4274C119.016 27.2511 117.788 27.656 117.045 27.6014L116.752 31.5906C119.273 31.776 121.597 30.3329 123.658 28.2206L120.795 25.4274ZM124.227 28.624V26.824H120.227V28.624H124.227ZM127.164 27.6804L122.664 26.6724L121.789 30.5756L126.289 31.5836L127.164 27.6804ZM124.727 19.6832V29.632H128.727V19.6832H124.727ZM126.551 17.691L122.051 18.0883L122.403 22.0728L126.903 21.6755L126.551 17.691ZM124.227 20.416V20.0805H120.227V20.416H124.227ZM120.932 25.5813C122.308 24.2885 123.368 22.831 124.065 21.2038L120.388 19.6282C119.934 20.6891 119.218 21.7035 118.193 22.6667L120.932 25.5813ZM116.797 28.119C118.271 27.7594 119.656 26.8055 120.947 25.5674L118.178 22.6806C117.117 23.6985 116.342 24.1126 115.849 24.233L116.797 28.119ZM112.535 26.6905C113.006 27.3496 113.661 27.8615 114.488 28.1097C115.285 28.3488 116.086 28.2967 116.808 28.1163L115.838 24.2357C115.599 24.2953 115.56 24.2552 115.637 24.2783C115.677 24.2902 115.72 24.3114 115.757 24.3388C115.793 24.3649 115.801 24.3811 115.79 24.3655L112.535 26.6905ZM111.927 20.8266C111.937 22.263 111.961 23.4029 112.003 24.2317C112.023 24.6434 112.049 25.0057 112.084 25.3014C112.101 25.4484 112.123 25.6043 112.153 25.7548C112.177 25.8714 112.231 26.1235 112.357 26.3879L115.968 24.6681C116.022 24.7808 116.049 24.8683 116.058 24.9014C116.064 24.9221 116.068 24.9379 116.071 24.9473C116.073 24.9569 116.074 24.9626 116.074 24.9637C116.074 24.9651 116.073 24.9557 116.069 24.9328C116.066 24.9104 116.062 24.8796 116.057 24.8392C116.037 24.6695 116.016 24.4063 115.998 24.0322C115.961 23.2895 115.937 22.2169 115.927 20.8L111.927 20.8266ZM113.751 18.821L109.399 19.2053L109.751 23.1898L114.103 22.8055L113.751 18.821ZM109.735 22.1873L114.099 21.802L113.747 17.8175L109.383 18.2028L109.735 22.1873ZM111.559 20.1684C111.532 18.178 111.519 15.2503 111.519 11.38H107.519C107.519 15.255 107.532 18.204 107.559 20.2217L111.559 20.1684ZM109.078 13.3309L113.542 14.3389L114.423 10.4371L109.959 9.42912L109.078 13.3309ZM111.983 12.3589C111.939 15.3433 111.919 17.829 111.923 19.8134L115.923 19.8061C115.92 17.8515 115.939 15.3894 115.982 12.4171L111.983 12.3589ZM122.403 21.0689L126.903 20.6716L126.551 16.6871L122.051 17.0844L122.403 21.0689ZM124.727 12.388V18.6793H128.727V12.388H124.727ZM121.789 13.3316L126.289 14.3396L127.164 10.4364L122.664 9.42836L121.789 13.3316ZM124.227 19.0766V11.38H120.227V19.0766H124.227ZM136.001 20.3745C135.015 19.6209 134.214 18.828 133.58 18.0016L130.405 20.435C131.279 21.5748 132.341 22.6123 133.574 23.5535L136.001 20.3745ZM136.083 20.3957L135.759 20.2157L133.816 23.7123L134.14 23.8923L136.083 20.3957ZM140.969 19.4193C139.343 19.8522 138.076 20.1152 137.142 20.2313C136.107 20.36 135.794 20.2631 135.846 20.2837L134.377 24.0043C135.342 24.385 136.547 24.336 137.635 24.2007C138.825 24.0528 140.288 23.7398 141.998 23.2847L140.969 19.4193ZM143.282 18.8922C142.802 18.9359 141.946 19.1529 140.957 19.4225L142.01 23.2815C142.527 23.1404 142.932 23.036 143.231 22.9654C143.567 22.8858 143.671 22.8734 143.645 22.8758L143.282 18.8922ZM145.728 21.477C145.83 21.0703 145.847 20.4526 145.468 19.8575C145.12 19.3112 144.627 19.0857 144.357 18.9956C143.873 18.8343 143.42 18.8783 143.265 18.8939L143.663 22.8741C143.661 22.8742 143.651 22.8752 143.634 22.8759C143.618 22.8766 143.589 22.8774 143.55 22.8761C143.492 22.8741 143.316 22.8651 143.092 22.7904C142.876 22.7183 142.42 22.5183 142.093 22.005C141.736 21.4429 141.758 20.8657 141.847 20.507L145.728 21.477ZM141.47 26.9063C143.686 25.8654 145.071 23.9554 145.721 21.5044L141.854 20.4796C141.448 22.0126 140.721 22.8386 139.769 23.2857L141.47 26.9063ZM135.107 27.5518C137.33 28.049 139.483 27.8539 141.481 26.9012L139.759 23.2908C138.636 23.8261 137.405 23.967 135.98 23.6482L135.107 27.5518ZM129.16 24.716C130.992 26.0903 132.968 27.0454 135.083 27.5462L136.004 23.6538C134.471 23.2906 132.991 22.5898 131.56 21.516L129.16 24.716ZM131.479 25.2758L132.127 24.0518L128.592 22.1802L127.944 23.4042L131.479 25.2758ZM135.566 26.6313C134.363 25.8365 132.877 24.6073 131.097 22.8976L128.326 25.7824C130.194 27.5767 131.876 28.9875 133.361 29.9687L135.566 26.6313ZM138.892 27.596C137.694 27.596 136.587 27.2757 135.532 26.609L133.396 29.991C135.076 31.0523 136.921 31.596 138.892 31.596V27.596ZM142.694 26.5414C141.709 27.2153 140.474 27.596 138.892 27.596V31.596C141.149 31.596 143.202 31.0407 144.953 29.8426L142.694 26.5414ZM144.63 24.2368C144.367 25.0112 143.79 25.7914 142.694 26.5414L144.953 29.8426C146.593 28.7206 147.816 27.2928 148.417 25.5232L144.63 24.2368ZM144.491 21.5656C144.905 22.584 144.912 23.4339 144.637 24.2162L148.41 25.5438C149.047 23.7341 148.934 21.8721 148.196 20.0584L144.491 21.5656ZM143.015 19.7491C143.758 20.2978 144.222 20.9047 144.491 21.5656L148.196 20.0584C147.62 18.6409 146.657 17.4666 145.391 16.5315L143.015 19.7491ZM144.027 16.148L131.817 17.226L132.169 21.2105L144.379 20.1325L144.027 16.148ZM164.484 17.4672C164.2 17.0812 164.108 16.7641 164.098 16.4876L160.1 16.6329C160.143 17.8147 160.567 18.8922 161.261 19.8368L164.484 17.4672ZM167.29 20.3745C166.117 19.4783 165.206 18.5262 164.526 17.5274L161.219 19.7766C162.172 21.1778 163.396 22.4337 164.863 23.5535L167.29 20.3745ZM167.372 20.3957L167.048 20.2157L165.105 23.7123L165.429 23.8923L167.372 20.3957ZM172.258 19.4193C170.632 19.8522 169.365 20.1152 168.431 20.2313C167.396 20.36 167.083 20.2631 167.135 20.2837L165.666 24.0043C166.631 24.385 167.836 24.336 168.924 24.2007C170.114 24.0528 171.577 23.7398 173.287 23.2847L172.258 19.4193ZM174.572 18.8922C174.092 18.9359 173.235 19.1529 172.246 19.4225L173.299 23.2815C173.816 23.1404 174.221 23.036 174.52 22.9654C174.856 22.8858 174.96 22.8734 174.934 22.8758L174.572 18.8922ZM177.017 21.4771C177.119 21.0704 177.136 20.4527 176.757 19.8575C176.41 19.3112 175.916 19.0857 175.646 18.9956C175.162 18.8343 174.709 18.8783 174.554 18.8939L174.952 22.8741C174.95 22.8742 174.94 22.8752 174.923 22.8759C174.907 22.8766 174.878 22.8774 174.839 22.8761C174.781 22.8741 174.605 22.8651 174.381 22.7904C174.165 22.7183 173.709 22.5183 173.383 22.005C173.025 21.4428 173.047 20.8656 173.136 20.5069L177.017 21.4771ZM172.759 26.9063C174.975 25.8654 176.36 23.9554 177.01 21.5044L173.143 20.4796C172.737 22.0126 172.01 22.8386 171.058 23.2857L172.759 26.9063ZM166.396 27.5518C168.619 28.049 170.772 27.8539 172.77 26.9012L171.048 23.2908C169.925 23.8261 168.694 23.967 167.269 23.6482L166.396 27.5518ZM160.449 24.716C162.281 26.0903 164.257 27.0454 166.372 27.5462L167.294 23.6538C165.76 23.2906 164.28 22.5898 162.849 21.516L160.449 24.716ZM162.768 25.2758L163.416 24.0518L159.881 22.1802L159.233 23.4042L162.768 25.2758ZM166.855 26.6313C165.652 25.8365 164.166 24.6073 162.386 22.8976L159.615 25.7824C161.483 27.5767 163.165 28.9875 164.65 29.9687L166.855 26.6313ZM170.181 27.596C168.983 27.596 167.876 27.2757 166.821 26.609L164.685 29.991C166.365 31.0523 168.21 31.596 170.181 31.596V27.596ZM173.983 26.5414C172.998 27.2153 171.763 27.596 170.181 27.596V31.596C172.438 31.596 174.491 31.0407 176.242 29.8426L173.983 26.5414ZM175.919 24.2368C175.656 25.0112 175.079 25.7914 173.983 26.5414L176.242 29.8426C177.882 28.7206 179.105 27.2928 179.706 25.5232L175.919 24.2368ZM175.78 21.5656C176.194 22.584 176.201 23.4339 175.926 24.2162L179.699 25.5438C180.336 23.7341 180.223 21.8721 179.485 20.0584L175.78 21.5656ZM173.359 19.1652C174.692 19.8605 175.42 20.6802 175.78 21.5656L179.485 20.0584C178.693 18.1118 177.189 16.6515 175.21 15.6188L173.359 19.1652ZM172.322 19.4848C172.893 19.3531 173.285 19.2951 173.531 19.2804C173.652 19.2732 173.697 19.2792 173.686 19.2779C173.685 19.2778 173.542 19.2628 173.343 19.1567L175.226 15.6273C174.532 15.2575 173.767 15.2592 173.292 15.2876C172.734 15.3209 172.1 15.4309 171.423 15.5872L172.322 19.4848ZM168.902 20.2683C169.93 20.0111 171.058 19.7525 172.287 19.4927L171.459 15.5793C170.191 15.8475 169.015 16.1169 167.932 16.3877L168.902 20.2683ZM164.808 18.8338C165.035 19.8556 165.847 20.2828 166.282 20.4218C166.69 20.5526 167.074 20.5518 167.297 20.5421C167.782 20.5211 168.343 20.4079 168.902 20.2683L167.932 16.3877C167.434 16.5121 167.191 16.5429 167.124 16.5459C167.071 16.5482 167.242 16.5294 167.501 16.6122C167.643 16.6578 167.89 16.7586 168.137 16.9806C168.408 17.2232 168.623 17.562 168.713 17.9662L164.808 18.8338ZM165.371 15.1883C164.785 16.3095 164.536 17.5431 164.804 18.812L168.718 17.988C168.674 17.7807 168.681 17.4908 168.916 17.0415L165.371 15.1883ZM166.967 14.1227L161.923 14.568L162.275 18.5525L167.319 18.1072L166.967 14.1227ZM162.382 17.5392L168.05 17.0387L167.699 13.0542L162.03 13.5546L162.382 17.5392ZM164.16 15.976C164.262 15.5111 164.443 15.0892 164.708 14.6977L161.397 12.4543C160.846 13.2667 160.464 14.1588 160.253 15.1178L164.16 15.976ZM164.725 14.6733C164.989 14.2712 165.432 13.8663 166.18 13.5097L164.461 9.89828C163.194 10.5017 162.125 11.3448 161.381 12.4787L164.725 14.6733ZM166.215 13.4929C166.927 13.1366 167.722 12.948 168.633 12.948V8.948C167.143 8.948 165.73 9.26336 164.426 9.91515L166.215 13.4929ZM168.633 12.948C168.772 12.948 169.107 12.9823 169.711 13.1164L170.578 9.21163C169.886 9.05773 169.213 8.948 168.633 8.948V12.948ZM169.726 13.1196C170.319 13.2468 171.195 13.4808 172.378 13.8357L173.527 10.0043C172.31 9.63925 171.314 9.36922 170.564 9.2084L169.726 13.1196ZM172.423 13.8487C173.633 14.1807 174.446 14.3975 174.807 14.4808L175.706 10.5832C175.443 10.5225 174.721 10.3313 173.482 9.99135L172.423 13.8487ZM173.297 12.1328L172.91 14.0296L176.83 14.828L177.216 12.9312L173.297 12.1328ZM174.889 16.435L175.046 16.4211L174.694 12.4366L174.537 12.4505L174.889 16.435ZM175.151 12.4912C173.999 12.2328 173.006 12.0429 172.187 11.9299C171.411 11.823 170.637 11.7618 169.997 11.8444L170.509 15.8116C170.596 15.8003 170.93 15.7945 171.641 15.8925C172.308 15.9844 173.182 16.1488 174.275 16.3942L175.151 12.4912ZM170.01 11.8428C168.588 12.0169 167.347 12.6415 166.387 13.7094L169.362 16.3835C169.651 16.0622 169.995 15.8745 170.496 15.8132L170.01 11.8428ZM184.296 24.16V14.7771H180.296V24.16H184.296ZM185.149 25.3376C184.756 24.9251 184.525 24.6046 184.4 24.3761C184.273 24.1461 184.296 24.086 184.296 24.16H180.296C180.296 25.6894 181.239 27.0308 182.251 28.0944L185.149 25.3376ZM187.791 27.1061C186.781 26.6786 185.892 26.08 185.114 25.3018L182.286 28.1302C183.427 29.272 184.747 30.1614 186.232 30.7899L187.791 27.1061ZM189.014 27.424C189.063 27.3963 189.044 27.4347 188.857 27.4212C188.652 27.4064 188.311 27.3318 187.808 27.1133L186.216 30.7827C187.679 31.4179 189.436 31.782 190.986 30.904L189.014 27.424ZM192.143 25.0236C190.794 26.2559 189.772 27.0149 189.052 27.4031L190.948 30.9249C192.099 30.3051 193.405 29.2881 194.841 27.9764L192.143 25.0236ZM191.012 26.6976L191.984 27.8136L195 25.1864L194.028 24.0704L191.012 26.6976ZM191.018 28.4115C191.847 28.1047 192.713 27.6413 193.606 27.0631L191.433 23.7049C190.695 24.1827 190.097 24.4873 189.629 24.6605L191.018 28.4115ZM188.318 28.6628C189.25 28.8821 190.185 28.7006 190.978 28.426L189.67 24.646C189.46 24.7187 189.319 24.7469 189.238 24.7564C189.157 24.7658 189.165 24.7531 189.234 24.7692L188.318 28.6628ZM186.318 27.5542C186.876 28.1131 187.559 28.4843 188.318 28.6628L189.234 24.7692C189.177 24.7557 189.163 24.7429 189.146 24.7258L186.318 27.5542ZM185.179 25.4731C185.368 26.2292 185.723 26.9599 186.318 27.5542L189.146 24.7258C189.151 24.7313 189.144 24.7263 189.129 24.6977C189.113 24.6673 189.086 24.6066 189.06 24.5029L185.179 25.4731ZM184.823 23.7328C184.926 24.3523 185.045 24.9332 185.179 25.4731L189.06 24.5029C188.955 24.0828 188.857 23.6077 188.769 23.0752L184.823 23.7328ZM184.688 21.568C184.688 22.2895 184.728 22.9849 184.811 23.6521L188.78 23.1559C188.72 22.6711 188.688 22.1425 188.688 21.568H184.688ZM184.724 19.624C184.724 20.2473 184.712 20.8706 184.689 21.494L188.686 21.642C188.711 20.9694 188.724 20.2967 188.724 19.624H184.724ZM184.724 18.436V19.624H188.724V18.436H184.724ZM184.724 14.3862V18.436H188.724V14.3862H184.724ZM186.548 12.3939L182.12 12.7849L182.472 16.7694L186.9 16.3784L186.548 12.3939ZM181.444 15.8563L191.973 14.9266L191.621 10.9421L181.092 11.8718L181.444 15.8563ZM181.268 11.864H180.424V15.864H181.268V11.864ZM182.262 13.0762L181.182 10.5562L177.505 12.1318L178.585 14.6518L182.262 13.0762ZM179.344 13.344H182.296V9.344H179.344V13.344ZM184.296 11.344V7.456H180.296V11.344H184.296ZM181.852 9.40611L186.28 10.4141L187.168 6.51389L182.74 5.50589L181.852 9.40611ZM184.724 8.464V11.344H188.724V8.464H184.724ZM186.724 13.344H191.116V9.344H186.724V13.344ZM189.277 12.1318L189.959 13.7222L193.636 12.1465L192.954 10.5562L189.277 12.1318ZM199.517 15.1239C199.628 15.0058 199.74 14.8916 199.853 14.7811L197.058 11.9197C196.902 12.0717 196.75 12.2279 196.599 12.3881L199.517 15.1239ZM198.318 17.1755C198.621 16.3424 199.033 15.6594 199.54 15.099L196.576 12.413C195.692 13.3886 195.024 14.5296 194.559 15.8085L198.318 17.1755ZM197.824 19.7508C197.863 18.8939 198.029 18.0243 198.331 17.1374L194.545 15.8467C194.128 17.0717 193.886 18.3141 193.828 19.5692L197.824 19.7508ZM198.372 22.1201C197.969 21.2172 197.81 20.4188 197.826 19.7054L193.827 19.6146C193.795 21.0132 194.116 22.3988 194.72 23.7519L198.372 22.1201ZM200.155 24.408C199.315 23.6855 198.736 22.916 198.366 22.1054L194.727 23.7666C195.365 25.164 196.322 26.3865 197.546 27.44L200.155 24.408ZM203.755 26.897C202.55 26.2517 201.347 25.4236 200.147 24.4015L197.553 27.4465C198.946 28.6324 200.383 29.6283 201.866 30.423L203.755 26.897ZM205.98 27.6013C205.322 27.5532 204.584 27.3407 203.754 26.8964L201.867 30.4236C203.101 31.0833 204.378 31.4948 205.688 31.5907L205.98 27.6013ZM207.809 27.3506C207.318 27.5528 206.721 27.6543 205.977 27.6011L205.692 31.5909C206.963 31.6817 208.191 31.5192 209.332 31.0494L207.809 27.3506ZM209.442 26.3304C208.948 26.7889 208.421 27.1159 207.856 27.3319L209.285 31.0681C210.352 30.6601 211.313 30.0511 212.163 29.2616L209.442 26.3304ZM210.785 24.6244C210.432 25.2555 209.986 25.8235 209.44 26.3322L212.165 29.2598C213.011 28.4725 213.717 27.5765 214.276 26.5756L210.785 24.6244ZM211.59 22.5223C211.415 23.2794 211.146 23.9777 210.785 24.6244L214.276 26.5756C214.827 25.5903 215.23 24.5366 215.487 23.4217L211.59 22.5223ZM211.797 20.3574C211.85 21.0376 211.789 21.7406 211.601 22.4753L215.476 23.4687C215.767 22.3314 215.874 21.1864 215.784 20.0426L211.797 20.3574ZM211.315 18.3483C211.603 18.9969 211.758 19.6458 211.793 20.3051L215.788 20.0949C215.726 18.9302 215.45 17.8031 214.97 16.7237L211.315 18.3483ZM210.187 16.7571C210.661 17.1814 211.033 17.6975 211.307 18.3298L214.978 16.7422C214.484 15.5985 213.776 14.6026 212.857 13.7789L210.187 16.7571ZM206.675 14.2563C208.122 15.1123 209.285 15.9483 210.187 16.7571L212.857 13.7789C211.713 12.7526 210.323 11.7665 208.711 10.8134L206.675 14.2563ZM207.517 10.5426L198.28 11.3582L198.632 15.3427L207.869 14.5271L207.517 10.5426ZM199.957 14.2217L206.322 13.6598L205.97 9.67532L199.605 10.2372L199.957 14.2217ZM200.956 13.8482C201.122 13.7274 201.291 13.6131 201.463 13.5053L199.334 10.1187C199.087 10.2743 198.844 10.4383 198.606 10.6108L200.956 13.8482ZM201.497 13.4834C202.04 13.1264 202.579 12.9616 203.148 12.9474L203.048 8.94863C201.697 8.9824 200.437 9.3936 199.3 10.1406L201.497 13.4834ZM203.147 12.9474C203.811 12.9312 204.449 13.0658 205.086 13.3675L206.799 9.75252C205.611 9.19021 204.354 8.91678 203.05 8.9486L203.147 12.9474ZM205.012 13.3302C205.077 13.3645 205.142 13.3988 205.206 13.433L207.086 9.90212C207.015 9.86465 206.944 9.8272 206.873 9.78976L205.012 13.3302ZM97.952 21.3964V13.864H93.952V21.3964H97.952ZM95.952 11.864H94.08V15.864H95.952V11.864ZM95.9183 13.0762L94.8383 10.5562L91.1617 12.1318L92.2417 14.6518L95.9183 13.0762ZM93 13.344H95.952V9.344H93V13.344ZM97.952 11.344V7.456H93.952V11.344H97.952ZM95.5081 9.40611L99.9361 10.4141L100.824 6.51389L96.3959 5.50589L95.5081 9.40611ZM98.38 8.464V11.344H102.38V8.464H98.38ZM100.38 13.344H104.772V9.344H100.38V13.344ZM102.934 12.1318L104.014 14.6518L107.69 13.0762L106.61 10.5562L102.934 12.1318ZM105.852 11.864H100.38V15.864H105.852V11.864ZM98.38 13.864V18.436H102.38V13.864H98.38ZM98.38 18.436V19.624H102.38V18.436H98.38ZM98.38 19.624C98.38 20.0674 98.3742 20.5109 98.3625 20.9544L102.361 21.0597C102.374 20.5812 102.38 20.1026 102.38 19.624H98.38ZM96.1279 23.3886L100.538 22.9993L100.186 19.0148L95.7761 19.4041L96.1279 23.3886ZM141.428 19.3892L142.716 19.2754L142.365 15.2909L141.076 15.4047L141.428 19.3892ZM141.61 19.3647C142.087 19.2777 142.326 19.273 142.398 19.2781L142.683 15.2883C142.12 15.248 141.499 15.3191 140.894 15.4292L141.61 19.3647ZM131.508 20.265L135.586 19.9049L135.234 15.9204L131.156 16.2805L131.508 20.265ZM133.052 17.2519C132.842 16.8979 132.783 16.5891 132.817 16.2694L128.839 15.8506C128.71 17.0748 128.987 18.2412 129.612 19.2937L133.052 17.2519ZM132.81 16.3209C132.891 15.7098 133.094 15.1779 133.419 14.6977L130.108 12.4543C129.425 13.4621 129.004 14.5862 128.845 15.7991L132.81 16.3209ZM133.436 14.6733C133.7 14.2712 134.143 13.8663 134.891 13.5097L133.172 9.89828C131.905 10.5017 130.836 11.3448 130.091 12.4787L133.436 14.6733ZM134.926 13.4929C135.638 13.1366 136.433 12.948 137.344 12.948V8.948C135.854 8.948 134.441 9.26336 133.137 9.91515L134.926 13.4929ZM137.344 12.948C137.483 12.948 137.818 12.9823 138.422 13.1164L139.289 9.21163C138.597 9.05773 137.924 8.948 137.344 8.948V12.948ZM138.437 13.1196C139.03 13.2468 139.906 13.4808 141.089 13.8357L142.238 10.0043C141.021 9.63925 140.025 9.36922 139.275 9.2084L138.437 13.1196ZM141.134 13.8487C142.344 14.1807 143.157 14.3975 143.518 14.4808L144.417 10.5832C144.154 10.5225 143.432 10.3313 142.193 9.99135L141.134 13.8487ZM142.008 12.1328L141.612 14.0768L145.531 14.8752L145.927 12.9312L142.008 12.1328ZM144.014 12.5255C142.821 12.255 141.796 12.0562 140.952 11.9375C140.153 11.8252 139.36 11.7602 138.708 11.8444L139.22 15.8116C139.311 15.7998 139.658 15.7948 140.395 15.8985C141.087 15.9958 141.994 16.169 143.129 16.4265L144.014 12.5255ZM138.72 11.8428C136.951 12.0595 135.514 12.9661 134.527 14.4466L137.856 16.6654C138.213 16.1299 138.624 15.8845 139.207 15.8132L138.72 11.8428ZM134.54 14.4281C133.814 15.4914 133.357 16.6954 133.412 17.9973L137.408 17.828C137.399 17.6076 137.463 17.2405 137.843 16.6839L134.54 14.4281ZM209.049 13.3275C207.933 12.5667 206.663 12.1669 205.298 12.3064C203.967 12.4424 202.768 13.0686 201.712 13.9458L204.269 17.0222C204.917 16.4834 205.392 16.3176 205.705 16.2856C205.984 16.2571 206.328 16.3133 206.796 16.6325L209.049 13.3275ZM211.617 17.3547C211.311 15.6873 210.456 14.3013 209.061 13.3356L206.784 16.6244C207.261 16.9547 207.558 17.3927 207.683 18.0773L211.617 17.3547ZM211.194 21.8513C211.754 20.3891 211.902 18.8743 211.616 17.3474L207.685 18.0846C207.83 18.8617 207.763 19.6269 207.459 20.4207L211.194 21.8513ZM209.103 25.4985C209.984 24.3701 210.683 23.1583 211.189 21.8648L207.464 20.4072C207.106 21.3217 206.605 22.1979 205.95 23.0375L209.103 25.4985ZM205.4 28.1024C206.916 27.6793 208.155 26.7524 209.122 25.4742L205.931 23.0618C205.41 23.7516 204.873 24.0967 204.325 24.2496L205.4 28.1024ZM200.947 27.5684C202.346 28.3379 203.872 28.5391 205.412 28.099L204.313 24.253C203.837 24.3889 203.395 24.3501 202.874 24.0636L200.947 27.5684ZM200.069 26.9385C200.315 27.1491 200.576 27.3402 200.85 27.512L202.97 24.12C202.861 24.0518 202.762 23.9789 202.672 23.9015L200.069 26.9385ZM198.198 19.8208C197.565 22.5545 197.975 25.1434 200.069 26.9385L202.672 23.9015C202.078 23.3926 201.672 22.5495 202.095 20.7232L198.198 19.8208ZM201.697 13.9582C199.924 15.4611 198.771 17.444 198.202 19.8035L202.091 20.7405C202.482 19.116 203.225 17.9069 204.283 17.0098L201.697 13.9582ZM220.245 12.352V15.016H224.245V12.352H220.245ZM217.308 13.2956L221.808 14.3036L222.682 10.4004L218.182 9.39236L217.308 13.2956ZM219.745 28.588V11.344H215.745V28.588H219.745ZM222.682 27.6444L218.182 26.6364L217.308 30.5396L221.808 31.5476L222.682 27.6444ZM220.245 18.724V29.596H224.245V18.724H220.245ZM223.069 14.5815C222.171 15.3136 221.337 16.3928 220.545 17.6701L223.945 19.7779C224.641 18.6552 225.199 18.0064 225.596 17.6825L223.069 14.5815ZM227.146 13.4962C225.678 13.3331 224.213 13.6068 223.036 14.6095L225.63 17.6545C225.749 17.5532 226.012 17.3949 226.704 17.4718L227.146 13.4962ZM232.004 15.6778C230.397 14.4853 228.742 13.6345 227.098 13.4915L226.752 17.4765C227.315 17.5255 228.252 17.8747 229.621 18.8902L232.004 15.6778ZM231.651 12.5481L229.167 16.1481L232.459 18.4199L234.943 14.8199L231.651 12.5481ZM228.952 13.6535C230.286 14.2185 231.353 14.7847 232.178 15.3417L234.416 12.0263C233.321 11.2873 232.012 10.6055 230.513 9.9705L228.952 13.6535ZM226.709 12.876C226.694 12.876 226.737 12.8751 226.854 12.8979C226.967 12.9198 227.122 12.9582 227.323 13.0206C227.729 13.1461 228.259 13.3482 228.926 13.6422L230.539 9.98183C229.79 9.65175 229.108 9.38586 228.506 9.19943C227.932 9.02184 227.306 8.876 226.709 8.876V12.876ZM223.933 16.0879C224.766 14.7762 225.469 13.9017 226.035 13.3774C226.637 12.8189 226.844 12.876 226.709 12.876V8.876C225.35 8.876 224.201 9.62314 223.315 10.4446C222.392 11.3003 221.476 12.4958 220.556 13.9442L223.933 16.0879ZM239.05 7.33836C238.217 6.94616 237.637 6.38164 237.244 5.61107L233.681 7.42893C234.488 9.01036 235.733 10.1978 237.347 10.9576L239.05 7.33836ZM239.003 5.82068C238.833 6.25096 238.392 6.8058 237.292 7.36545L239.106 10.9306C240.742 10.0982 242.077 8.92505 242.723 7.29133L239.003 5.82068ZM237.34 5.82317C238.164 6.19471 238.713 6.72853 239.074 7.45043L242.652 5.66157C241.86 4.07948 240.609 2.9093 238.985 2.17683L237.34 5.82317ZM237.875 6.53587C238.161 6.28001 238.38 6.11421 238.535 6.01414C238.704 5.90503 238.724 5.92249 238.621 5.94683L237.705 2.05317C236.77 2.27317 235.907 2.93003 235.211 3.55213L237.875 6.53587ZM237.447 6.76801C237.428 6.92244 237.386 7.02181 237.37 7.05614C237.354 7.09109 237.351 7.08758 237.383 7.04402C237.451 6.95102 237.599 6.78227 237.875 6.53589L235.211 3.55211C234.815 3.90573 234.447 4.28298 234.155 4.68198C233.878 5.05952 233.562 5.60211 233.478 6.27199L237.447 6.76801ZM238.359 12.352V29.596H242.359V12.352H238.359ZM235.422 13.2956L239.922 14.3036L240.796 10.4004L236.296 9.39236L235.422 13.2956ZM237.859 28.588V11.344H233.859V28.588H237.859ZM240.796 27.6444L236.296 26.6364L235.422 30.5396L239.922 31.5476L240.796 27.6444ZM250.212 23.0397L258.384 17.4597L256.128 14.1563L247.956 19.7363L250.212 23.0397ZM248.296 15.9017C247.446 17.4755 247.084 19.3397 247.084 21.388H251.084C251.084 19.7883 251.37 18.6285 251.816 17.8023L248.296 15.9017ZM252.361 12.6392C250.531 13.0785 249.168 14.2539 248.288 15.9162L251.823 17.7878C252.239 17.0021 252.725 16.6655 253.295 16.5288L252.361 12.6392ZM258.333 14.1226C256.425 12.9036 254.37 12.1666 252.37 12.6372L253.286 16.5308C253.734 16.4254 254.631 16.5044 256.179 17.4934L258.333 14.1226ZM248.368 26.1154C249.256 27.1934 250.373 27.9945 251.734 28.3057L252.626 24.4063C252.307 24.3335 251.912 24.1266 251.456 23.5726L248.368 26.1154ZM251.54 21.1772L248.732 23.2292L251.092 26.4588L253.9 24.4068L251.54 21.1772ZM257.178 17.0471C255.314 18.4334 253.438 19.8077 251.55 21.1701L253.89 24.4139C255.794 23.0403 257.686 21.6547 259.565 20.2569L257.178 17.0471ZM259.355 15.7875C259.451 15.4968 259.593 15.3022 259.627 15.2562C259.682 15.1802 259.73 15.1257 259.753 15.1003C259.8 15.0483 259.835 15.0161 259.837 15.0141C259.846 15.0055 259.833 15.0177 259.782 15.0605C259.685 15.1411 259.524 15.269 259.289 15.4512C258.823 15.812 258.121 16.3434 257.175 17.0496L259.569 20.2544C260.519 19.5446 261.245 18.996 261.739 18.6128C261.984 18.423 262.186 18.2629 262.335 18.1395C262.406 18.0803 262.487 18.0115 262.561 17.9429C262.596 17.911 262.656 17.854 262.72 17.7825C262.752 17.7473 262.807 17.6844 262.867 17.6013C262.906 17.5482 263.051 17.3477 263.149 17.0525L259.355 15.7875ZM255.451 14.5003C257.275 15.6776 258.744 16.8044 259.88 17.8756L262.624 14.9644C261.264 13.6836 259.589 12.4104 257.621 11.1397L255.451 14.5003ZM252.288 12.948C252.372 12.948 252.672 12.9857 253.263 13.2462C253.83 13.4959 254.547 13.8981 255.427 14.4841L257.645 11.1559C256.652 10.4939 255.726 9.96005 254.876 9.58583C254.052 9.22232 253.164 8.948 252.288 8.948V12.948ZM249.477 14.0159C250.405 13.2659 251.326 12.948 252.288 12.948V8.948C250.322 8.948 248.531 9.63811 246.963 10.9041L249.477 14.0159ZM247.325 16.8403C247.794 15.735 248.501 14.8004 249.473 14.0188L246.967 10.9013C245.491 12.0876 244.374 13.553 243.642 15.2797L247.325 16.8403ZM246.862 20.4661C246.724 19.1055 246.894 17.9007 247.336 16.8136L243.631 15.3064C242.922 17.0513 242.684 18.9185 242.882 20.8699L246.862 20.4661ZM248.23 23.5781C247.439 22.6984 246.987 21.6811 246.861 20.4632L242.882 20.8728C243.093 22.9189 243.889 24.7336 245.257 26.2539L248.23 23.5781ZM253.292 27.2248C251.575 26.5658 249.879 25.3786 248.219 23.5654L245.269 26.2666C247.257 28.4374 249.449 30.0342 251.859 30.9593L253.292 27.2248ZM256.171 27.2142C255.172 27.5806 254.236 27.5766 253.275 27.218L251.877 30.966C253.748 31.6634 255.668 31.6594 257.548 30.9698L256.171 27.2142ZM260.967 24.421C258.944 25.9092 257.366 26.796 256.199 27.2043L257.521 30.9797C259.234 30.38 261.184 29.2268 263.337 27.643L260.967 24.421ZM260.018 26.7262L260.738 27.4462L263.566 24.6178L262.846 23.8978L260.018 26.7262ZM258.581 25.1418L259.949 26.6538L262.915 23.9702L261.547 22.4582L258.581 25.1418ZM257.93 24.4942L258.65 25.2142L261.478 22.3858L260.758 21.6658L257.93 24.4942ZM258.286 26.4164C258.973 25.9409 259.753 25.3384 260.62 24.62L258.068 21.54C257.255 22.2136 256.571 22.7391 256.009 23.1276L258.286 26.4164ZM255.646 27.8479C256.64 27.3892 257.512 26.9234 258.242 26.4459L256.053 23.0981C255.536 23.4367 254.848 23.8108 253.97 24.2161L255.646 27.8479ZM251.734 28.3057C253.063 28.6093 254.382 28.4135 255.625 27.8576L253.991 24.2064C253.41 24.4665 252.977 24.4867 252.626 24.4063L251.734 28.3057ZM276.059 12.1328L275.663 14.0768L279.582 14.8752L279.978 12.9312L276.059 12.1328ZM275.185 13.8487C276.394 14.1807 277.208 14.3975 277.569 14.4808L278.468 10.5832C278.205 10.5225 277.482 10.3313 276.244 9.99135L275.185 13.8487ZM272.487 13.1196C273.081 13.2468 273.957 13.4808 275.14 13.8357L276.289 10.0043C275.072 9.63925 274.076 9.36922 273.325 9.2084L272.487 13.1196ZM271.394 12.948C271.534 12.948 271.869 12.9823 272.472 13.1164L273.34 9.21163C272.648 9.05773 271.975 8.948 271.394 8.948V12.948ZM268.977 13.4929C269.689 13.1366 270.484 12.948 271.394 12.948V8.948C269.904 8.948 268.492 9.26336 267.188 9.91514L268.977 13.4929ZM267.486 14.6733C267.75 14.2712 268.193 13.8663 268.942 13.5097L267.222 9.89828C265.955 10.5017 264.886 11.3448 264.142 12.4787L267.486 14.6733ZM266.861 16.3209C266.942 15.7098 267.145 15.1779 267.47 14.6977L264.159 12.4543C263.476 13.4621 263.055 14.5862 262.895 15.7991L266.861 16.3209ZM267.246 17.4672C266.907 17.0073 266.829 16.6325 266.867 16.2694L262.889 15.8506C262.736 17.3115 263.161 18.6647 264.023 19.8368L267.246 17.4672ZM270.052 20.3745C268.879 19.4783 267.967 18.5262 267.288 17.5274L263.98 19.7766C264.933 21.1778 266.158 22.4337 267.625 23.5535L270.052 20.3745ZM270.134 20.3957L269.81 20.2157L267.867 23.7123L268.191 23.8923L270.134 20.3957ZM275.02 19.4193C273.394 19.8522 272.127 20.1152 271.193 20.2313C270.157 20.36 269.844 20.2631 269.897 20.2837L268.428 24.0043C269.392 24.385 270.597 24.336 271.686 24.2007C272.876 24.0528 274.339 23.7398 276.049 23.2847L275.02 19.4193ZM277.333 18.8922C276.853 18.9359 275.996 19.1529 275.008 19.4225L276.061 23.2815C276.578 23.1404 276.983 23.036 277.281 22.9654C277.618 22.8858 277.722 22.8734 277.695 22.8758L277.333 18.8922ZM279.779 21.4771C279.88 21.0704 279.898 20.4527 279.519 19.8575C279.171 19.3112 278.678 19.0857 278.408 18.9956C277.924 18.8343 277.471 18.8783 277.315 18.8939L277.713 22.8741C277.712 22.8742 277.702 22.8752 277.685 22.8759C277.668 22.8766 277.639 22.8774 277.601 22.8761C277.542 22.8741 277.367 22.8651 277.143 22.7904C276.927 22.7183 276.471 22.5183 276.144 22.005C275.787 21.4428 275.808 20.8656 275.898 20.5069L279.779 21.4771ZM275.521 26.9063C277.737 25.8654 279.122 23.9554 279.772 21.5044L275.905 20.4796C275.499 22.0126 274.772 22.8386 273.82 23.2857L275.521 26.9063ZM269.158 27.5518C271.381 28.049 273.534 27.8539 275.531 26.9012L273.809 23.2908C272.687 23.8261 271.456 23.967 270.031 23.6482L269.158 27.5518ZM263.21 24.716C265.043 26.0903 267.019 27.0454 269.133 27.5462L270.055 23.6538C268.522 23.2906 267.042 22.5898 265.61 21.516L263.21 24.716ZM265.53 25.2758L266.178 24.0518L262.643 22.1802L261.995 23.4042L265.53 25.2758ZM269.617 26.6313C268.414 25.8365 266.928 24.6073 265.148 22.8976L262.377 25.7824C264.245 27.5767 265.927 28.9875 267.412 29.9687L269.617 26.6313ZM272.942 27.596C271.745 27.596 270.638 27.2757 269.582 26.609L267.446 29.991C269.127 31.0523 270.972 31.596 272.942 31.596V27.596ZM276.745 26.5414C275.76 27.2153 274.525 27.596 272.942 27.596V31.596C275.2 31.596 277.253 31.0407 279.004 29.8426L276.745 26.5414ZM278.681 24.2368C278.418 25.0112 277.841 25.7914 276.745 26.5414L279.004 29.8426C280.644 28.7206 281.867 27.2928 282.468 25.5232L278.681 24.2368ZM278.542 21.5656C278.956 22.584 278.963 23.4339 278.688 24.2162L282.461 25.5438C283.098 23.7341 282.985 21.872 282.247 20.0584L278.542 21.5656ZM276.121 19.1652C277.454 19.8605 278.182 20.6802 278.542 21.5656L282.247 20.0584C281.455 18.1118 279.951 16.6515 277.971 15.6188L276.121 19.1652ZM275.084 19.4848C275.655 19.3531 276.047 19.2951 276.293 19.2804C276.413 19.2732 276.458 19.2792 276.448 19.2779C276.447 19.2778 276.304 19.2628 276.105 19.1567L277.988 15.6273C277.294 15.2575 276.528 15.2592 276.054 15.2876C275.496 15.3209 274.862 15.4309 274.185 15.5872L275.084 19.4848ZM271.663 20.2683C272.692 20.0111 273.82 19.7525 275.048 19.4927L274.22 15.5793C272.953 15.8475 271.776 16.1169 270.693 16.3877L271.663 20.2683ZM267.57 18.8339C267.797 19.8556 268.609 20.2828 269.043 20.4219C269.452 20.5526 269.836 20.5518 270.059 20.5421C270.544 20.5211 271.105 20.4079 271.663 20.2683L270.693 16.3877C270.196 16.5121 269.953 16.5429 269.885 16.5459C269.833 16.5482 270.004 16.5294 270.262 16.6122C270.405 16.6578 270.651 16.7586 270.899 16.9806C271.17 17.2232 271.385 17.5619 271.475 17.9661L267.57 18.8339ZM268.591 14.4281C267.702 15.73 267.232 17.2278 267.565 18.812L271.479 17.988C271.429 17.7482 271.439 17.35 271.894 16.6839L268.591 14.4281ZM272.771 11.8428C271.002 12.0595 269.565 12.9661 268.578 14.4466L271.906 16.6654C272.263 16.1299 272.675 15.8845 273.257 15.8132L272.771 11.8428ZM278.065 12.5255C276.872 12.255 275.847 12.0562 275.003 11.9375C274.204 11.8252 273.411 11.7602 272.758 11.8444L273.27 15.8116C273.361 15.7998 273.708 15.7948 274.446 15.8985C275.138 15.9958 276.045 16.169 277.18 16.4265L278.065 12.5255Z" fill="#3971B8" mask="url(#path-3-outside-2_1_53)"/>
</svg>
