<svg id="Capa_1" enable-background="new 0 0 512 512" height="512" viewBox="0 0 512 512" width="512" xmlns="http://www.w3.org/2000/svg"><g><path d="m264.159 160.6-8.159 9.028 21.333 54.372 33.333 29.5 23.958-29.208-14.624-42.959-37.564-37.825c-6.471 5.109-12.593 10.803-18.277 17.092z" fill="#cc2c2c"/><path d="m334.64 224.298c9.497-10.507 20.944-15.836 34.025-15.836 18.688 0 48.335 12.907 48.335 47.538 0 34.632-29.647 47.538-48.334 47.538-13.082 0-24.529-5.328-34.025-15.835l-23.974-34.203-54.667-83.872-10.667 97.039 10.667 75.705 8.16 9.028c20.593 22.787 46.748 38.05 75.637 44.142 26.83 5.656 54.852 3.32 81.034-6.757 26.182-10.078 48.538-27.133 64.651-49.321 17.348-23.889 26.518-52.751 26.518-83.464s-9.17-59.574-26.519-83.463c-16.113-22.188-38.469-39.242-64.651-49.32-26.182-10.079-54.204-12.414-81.034-6.758-20.915 4.41-40.384 13.651-57.36 27.05z" fill="#fc3636"/><g><path d="m247.841 351.4 8.159-9.028-21.333-54.372-33.333-29.5-23.958 29.208 14.624 42.959 37.564 37.824c6.471-5.108 12.593-10.802 18.277-17.091z" fill="#fc3636"/><path d="m177.36 287.702c-9.497 10.507-20.944 15.836-34.025 15.836-18.688-.001-48.335-12.907-48.335-47.538 0-34.632 29.647-47.538 48.334-47.538 13.081 0 24.529 5.328 34.025 15.835l23.974 34.202 54.667 83.873v-172.744l-8.159-9.028c-20.593-22.787-46.748-38.05-75.637-44.142-26.83-5.656-54.852-3.32-81.034 6.757-26.182 10.078-48.538 27.133-64.651 49.321-17.349 23.889-26.519 52.751-26.519 83.464s9.17 59.574 26.519 83.463c16.113 22.188 38.469 39.242 64.651 49.32 26.182 10.079 54.204 12.414 81.034 6.758 20.915-4.41 40.384-13.651 57.36-27.05z" fill="#fc5b3f"/></g></g></svg>